<?xml version="1.0" encoding="utf-8"?>
<!-- Generator: Adobe Illustrator 27.3.1, SVG Export Plug-In . SVG Version: 6.00 Build 0)  -->
<svg version="1.1" id="Layer_1" xmlns="http://www.w3.org/2000/svg" xmlns:xlink="http://www.w3.org/1999/xlink" x="0px" y="0px"
	 viewBox="0 0 208.05 47.26" style="enable-background:new 0 0 208.05 47.26;" xml:space="preserve">
<style type="text/css">
	.st0{fill:#FFFFFF;}
</style>
<g>
	<path d="M45.61,0v46.61h-9.15v-28.5l-9.99,17.36h-3.02L39.08,8.31v35.69H43V2.61h-5.13L19.1,35.44L9.15,18.11v28.5H0V0h9.27
		l11.39,19.94l-1.52,2.61L7.75,2.61H2.61v41.38h3.92V8.31L19.1,30.18L36.34,0H45.61z"/>
	<path d="M68.55,0v14.93l-1.06,18.7h-2.61l1.06-18.79V2.61h-5.26v12.23l1.06,18.79h-2.61l-1.06-18.7V0H68.55z M68.46,42.66
		c0,2.02-1.18,3.76-2.89,4.6l-1.15-2.33c0.84-0.4,1.43-1.28,1.43-2.27c0-1.4-1.12-2.55-2.52-2.55c-1.4,0-2.55,1.15-2.55,2.55
		c0,1,0.59,1.87,1.43,2.27l-1.18,2.33c-1.68-0.84-2.86-2.58-2.86-4.6c0-2.86,2.3-5.17,5.16-5.17
		C66.16,37.49,68.46,39.79,68.46,42.66z"/>
	<path d="M113.79,14.78c0,5.66-2.46,10.24-6.81,12.69l-1.52-2.08c3.92-2.3,5.72-5.94,5.72-10.61c0-7.5-5.57-12.17-14.09-12.17H83.62
		v41.38h3.92V21.34h2.71l16.65,22.65h4.6l-16.8-22.65h2.55c5.76,0,7.41-3.08,7.41-6.56c0-3.92-2.77-6-7.09-6h-7.4v9.02h-2.61V6.16
		h10.02c5.91,0,9.71,3.39,9.71,8.62c0,4.95-2.77,8.28-7.53,8.96l16.96,22.87h-11.14l-15.4-21v21H81V0h16.08
		C107.82,0,113.79,6.5,113.79,14.78z"/>
	<path d="M137.14,24.8l-12.32,19.2h4.51l7.84-12.2l1.56,2.43l-7.96,12.38h-10.73l17.11-26.63l15.43,24.02h4.51L143.2,22.37
		L155.9,2.61h-4.48l-10.45,16.27L130.48,2.61H126l8.9,13.81l-1.56,2.43L121.21,0h10.7l9.05,14.03L149.99,0h10.7l-14.38,22.37
		l15.56,24.24h-10.73L137.14,24.8z"/>
	<path d="M208.05,46.61h-9.55L194.3,35h-22.31l-3.27,8.99h3.95l1.99-5.44h2.77l-2.92,8.06h-9.52l5.17-14.22h25.98l4.2,11.6h3.98
		L189.26,2.61h-5.48l-8.59,23.61h15.93l-4.6-12.66l-3.33,9.12h-2.77l6.1-16.77l8.34,22.93h-23.4L181.95,0h9.15L208.05,46.61z"/>
</g>
</svg>
