<?xml version="1.0" encoding="utf-8"?>
<!-- Generator: Adobe Illustrator 27.3.1, SVG Export Plug-In . SVG Version: 6.00 Build 0)  -->
<svg version="1.1" id="Layer_1" xmlns="http://www.w3.org/2000/svg" xmlns:xlink="http://www.w3.org/1999/xlink" x="0px" y="0px"
	 viewBox="0 0 412.4 136" style="enable-background:new 0 0 412.4 136;" xml:space="preserve">
<style type="text/css">
	.st0{fill:#282828;}
	.st1{fill:#FFFFFF;}
</style>
<path d="M409.9,58.2c-7.6,4.8-15.2,9.6-22.8,14.3c-4.3,2.7-8.8,5.3-13.7,6.7c-3.9,1.1-4.6,1.5-4-3.5c0.5-4.6,1.4-9.1,2-13.7
	c0.2-1.5,0.3-3.1,0.1-4.6c-0.3-1.7-1.7-2.3-3.2-1.4c-1.3,0.8-2.5,1.8-3.6,2.9c-2.8,3.1-5.5,6.4-8.2,9.5c-0.9,1-1.8,1.9-2.7,2.8
	c-0.1,0-0.3-0.1-0.4-0.1c-0.1-0.5-0.4-1-0.3-1.4c0-1,0.2-2.1,0.4-3.1c0.5-4.7,1.1-9.4,1.6-14.1c0.1-1.1-0.3-2.3-0.8-3.3
	c-0.8-1.6-2.2-2.1-3.7-1.1c-1.4,0.9-2.7,2-3.7,3.2c-4.6,6-8,12.8-11.6,19.4c-0.8,1.6-1.8,3.1-2.8,4.6c-0.1,0-0.2-0.1-0.3-0.1
	c0-0.4-0.1-0.8,0-1.2c0.5-3.4,1.1-6.8,1.5-10.2c0.1-0.9,0.2-1.9,0.1-2.8c-0.2-1.5-0.9-1.8-2.3-1.2c-7.1,2.9-14.2,5.9-21.3,8.8
	c-5.1,2.1-10.3,4-15.7,5.2c-3.6,0.8-3.6-0.5-3.4-3.5c0,0,0-0.1,0-0.1c0.7-2.5,1.5-5.1,2.2-7.6c0.1-0.4,0.1-0.9,0.1-1.4
	c-0.6,0-1.1-0.1-1.7,0c-0.4,0.1-0.8,0.5-1.1,0.8c-0.8,0.6-1.5,1.4-2.3,1.9c-5.9,3.4-11.8,6.9-17.7,10.1c-4.1,2.2-8.5,3.9-13.3,4.5
	c-3.1,0.4-3.6-0.1-3.7-3.3c-0.1-1.4-0.1-2.8-0.4-4.2c-0.4-1.7-1.6-2.4-3.3-1.9c-0.8,0.2-1.6,0.5-2.3,1c-3.5,2.3-7,4.7-10.5,7.1
	c-0.3,0.2-0.6,0.3-1.1,0.7c0.4-3.4,0.8-6.4,1.1-9.4c0.1-1.1,0.6-1.7,1.6-2.2c1-0.6,2-1.2,2.9-1.9c0.2-0.1,0.2-0.5,0.4-0.7
	c-0.3-0.1-0.6-0.3-0.8-0.3c-0.4,0-0.7,0.2-1.1,0.4c-0.8,0.3-1.5,0.7-2.4,1.1c0.1-0.7,0.1-1.2,0.1-1.7c0.9-5.9,1.6-11.7,2.7-17.6
	c1.9-10.4,3.9-20.9,6.1-31.2c0.6-2.8,2-5.4,3.1-8.1c0.8-1.8,0.8-3.5,0.2-5.3c-0.3-0.9-0.9-1.1-1.4-0.4c-0.8,1.1-1.7,2.2-2.1,3.5
	c-1.6,5.4-3.3,10.8-4.5,16.3c-3.1,15-5.8,30.1-7.6,45.3c-0.1,0.9-0.5,1.5-1.4,1.9c-1.7,0.8-3.3,1.6-4.9,2.4c-8.2,4-16.3,8-25.1,10.6
	c-2.9,0.9-5.8,1.6-8.8,1.2c-2.7-0.4-4.1-2.2-3.8-4.9c0.1-1.1,0.3-2.1,0.4-3.2c0.1-0.9,0.4-2.2-0.1-2.8c-0.8-1-2.1-0.2-3,0.2
	c-2.6,1.2-5,2.6-7.6,3.8c-2.1,1-4.2,2-6.3,2.9c-0.5,0.2-1.1,0.1-1.9,0.2c0.3-0.8,0.4-1.3,0.7-1.8c2.8-4.5,6.9-7.5,11.7-9.6
	c1.1-0.5,2.1-0.3,2.9,0.7c0.5,0.6,0.9,1.3,1.4,1.9c0.2-0.1,0.4-0.3,0.6-0.4c-0.1-0.4,0-0.8-0.2-1.2c-1.2-2.8-2.8-3.6-5.6-3
	c-3.3,0.7-5.6,2.9-8.1,4.9c-2.1,1.7-4,3.5-6.2,4.9c-5.1,3.2-10.5,6-16.3,7.9c-4,1.3-8.1,2.4-12.4,2.3c-1.6,0-2.3-0.8-1.9-2.4
	c0.2-1.1,0.6-2.2,1-3.2c0.9-2.1,1.9-4.2,2.8-6.4c0.6-1.5,0.5-1.8-0.9-2.6c-1.4-0.7-2.8-1.2-4.2-1.9c-0.4-0.2-0.7-0.5-1.1-0.7
	c0.3-0.3,0.5-0.7,0.9-0.9c2.1-1.5,3.9-3.3,4.4-5.9c0.5-2.4-1.6-4.3-3.9-3.5c-2.9,0.9-5,3.6-5.1,6.7c0,0.9,0,1.7,0,2.5
	c-12.3,2.4-24,6-35.7,10.5c0.1-0.8,0.2-1.4,0.1-1.9c-0.1-1.3-0.1-2.6-0.5-3.8c-0.5-1.6-1.9-2.4-3.4-1.8C91.1,70,89.4,70.9,88,72
	c-2,1.5-3.7,3.4-5.5,5.1c-0.6,0.5-1.3,1-1.9,1.5c-0.1-0.1-0.3-0.1-0.4-0.2c0.1-0.7,0.1-1.4,0.3-2.1c3.6-13.3,7.2-26.6,10.9-39.9
	c1.9-6.7,3.6-13.4,6.4-19.7c0.5-1.2,0.9-2.5,1.1-3.8c0.2-1.2,0.2-2.5-0.1-3.7c-0.4-1.4-1.5-1.6-2.3-0.4c-0.9,1.4-1.7,2.9-2.2,4.5
	c-2.1,7-4.2,14-5.9,21.1c-3.2,12.8-6.2,25.7-9.2,38.6c-0.5,2-0.7,4.2-0.8,6.3c-0.1,2,0.9,2.5,2.6,1.5c0.6-0.3,1.2-0.7,1.7-1.2
	c2.1-1.8,4-3.7,6.2-5.4c1-0.8,2.2-1.3,3.4-1.8c0.3-0.1,1,0.1,1.2,0.4c1,1.5-0.1,5.5-1.7,6.3c-3.3,1.7-6.5,3.8-9.1,6.5
	c-1.1,1.2-2,2.6-2.7,4.1c-0.6,1.1,0,2.1,1.3,2.3c1.2,0.1,2.5,0.1,3.6-0.3c4.5-1.6,7.6-4.9,9.3-9.1c1.2-3.1,3.3-4.6,6.2-5.6
	c10.4-3.6,21-6.3,31.6-8.9c0.4-0.1,0.9-0.1,1.2,0.1c1.4,1.5,3.2,2.1,5.1,2.8c0.9,0.3,1.1,0.8,0.7,1.7c-0.7,1.6-1.3,3.1-1.9,4.7
	c-0.5,1.5-1.1,3-1.3,4.5c-0.4,3,0.6,5.5,4.3,5.2c1.9-0.1,3.7-0.3,5.5-0.7c7.4-1.9,14.5-4.7,21.1-8.7c1-0.6,2.1-1.2,3.3-1.8
	c0,0.4,0,0.6,0,0.7c-0.4,2.2,0.6,3.5,2.9,3.3c1-0.1,2.1-0.5,3.1-0.9c2.3-1.1,4.6-2.4,6.9-3.5c1.3-0.6,2.5-1.3,3.8-1.9
	c0.9-0.4,1.4-0.1,1.3,0.9c-0.1,0.7-0.2,1.5-0.2,2.2c-0.1,3.5,1.4,5.9,4.5,7c1.2,0.4,2.4,0.5,3.7,0.5c3.9-0.1,7.5-1.4,11.1-2.8
	c9-3.4,17.7-7.6,26.1-12.3c0.2-0.1,0.4-0.1,0.8-0.2c-0.1,0.7-0.1,1.3-0.1,2c-0.3,2.6-0.6,5.3-0.8,7.9c0,0.7,0.4,1.7,0.9,2.1
	c0.3,0.2,1.3-0.3,1.9-0.6c3.1-2,6.1-4.1,9.3-6.1c1.3-0.8,2.6-1.4,4-2c1.2-0.5,1.5-0.3,1.5,1c0,0.7,0,1.4,0.1,2.1
	c0.4,3.9,2.5,5.9,6.4,5.4c2.8-0.3,5.6-1,8.3-1.9c6.4-2.2,11.9-6.1,17.6-9.5c1.9-1.1,3.9-2.3,6-3.6c-0.2,1.6-0.4,2.9-0.6,4.3
	c-0.6,4.6,2,7,6.5,5.9c0.3-0.1,0.6-0.2,1-0.3c3.7-1.2,7.5-2.3,11.1-3.8c7.5-3,14.9-6.2,22.4-9.4c0.4-0.2,0.7-0.3,1.1-0.4
	c0.1,0.3,0.2,0.4,0.2,0.5c-0.4,5.1-0.8,10.3-1.1,15.4c-0.1,1.1-0.1,2.2,0,3.4c0,0.4,0.4,1,0.8,1.1c0.4,0.1,1-0.1,1.3-0.4
	c0.6-0.7,1.1-1.5,1.6-2.4c4-7.4,8-14.9,12.1-22.3c1.3-2.3,3-4.4,4.8-6.3c1.2-1.3,2.2-0.8,2.5,0.9c0.1,0.4,0.1,0.9,0.1,1.4
	c-0.4,3.9-0.8,7.8-1.1,11.8c-0.2,2.3-0.4,4.7-0.4,7.1c0,1.8,1,2.2,2.6,1.4c0.8-0.4,1.6-1,2.3-1.7c1.8-2,3.5-4.2,5.3-6.3
	c1.9-2.1,3.9-4.2,5.9-6.2c0.3-0.3,0.9-0.3,1.3-0.5c0.1,0.5,0.4,0.9,0.3,1.4c-0.4,3.3-0.8,6.5-1.2,9.8c-0.3,3.1-0.7,6.2-0.7,9.3
	c0,2.3,1.2,3.1,3.5,2.6c2.3-0.5,4.7-1.2,6.9-2.1c9.3-4,17.7-9.6,26.2-15.1c2.9-1.9,5.8-4,8.7-5.9C411.8,57.4,411.3,57.3,409.9,58.2z
	 M82.2,89.6c2.2-3.8,5.9-5.7,9.5-8.3C90.9,85.2,85,90.3,82.2,89.6z M139.5,59c0.4,2.4-1.5,5.1-4.5,6.8
	C133.8,63.5,136.8,58.9,139.5,59z M77.1,13.6c1,3.8,1.2,7.8,0.9,11.7c-0.6,9-2.6,17.8-4.9,26.5c-3.7,14-8.2,27.8-13.9,41.1
	c-4.6,10.8-10.5,20.9-18.6,29.6c-5.4,5.7-11.4,10.4-19.2,12.5c-4,1.1-8,1.5-12,0.3c-7.5-2.4-10-9.3-9.3-15.2
	c0.9-7.7,5.1-13.7,10.6-18.8c7.8-7.2,17-9.8,27.4-8.5c2.2,0.3,4.5,0.4,6.4,1.9c0.1,0.1,0.3,0.1,0.5,0.2c-0.1,0.2-0.1,0.3-0.2,0.5
	c-0.8,0-1.5,0.1-2.3,0.1c-3.8-0.1-7.6-0.6-11.3-0.4c-15.8,1.1-25.4,13-27.3,24.6c-0.7,4.2-0.2,8.2,3,11.5c2.2,2.2,5,2.7,7.9,2.7
	c5.9-0.1,10.8-2.6,15.5-5.9c6.6-4.7,11.5-10.9,15.9-17.6c5.8-8.8,10.3-18.2,14-28c4-10.5,8-21,10.8-31.9c2.1-8,3.8-16,4.3-24.2
	C75.5,22.1,75.3,18,74,14c-1.6-4.6-5-6.5-9.8-5.3c-4.6,1.1-8.5,3.4-12.2,6.2C40.4,23.5,31.9,34.5,25.1,47c-3.2,5.8-6.1,11.7-8.2,18
	c-1.4,4.1-2.5,8.2-2.4,12.6c0.1,4.1,1.9,7.1,5.2,9.4c0.7,0.5,1.3,1.1,2.1,1.8c-1.4,0.8-2.3,0.4-3.2-0.1c-3.1-1.9-4.9-4.9-5.8-8.4
	c-1.2-4.5-0.4-9,0.6-13.4c2.7-11.5,8.1-21.8,14.6-31.5c5.9-8.9,12.8-17,21.6-23.3c4.5-3.2,9.5-5.6,15-6.6
	C71.1,4.4,75.5,7.2,77.1,13.6z M295.2,51c-0.4-0.7-0.9-1.5-1.3-2.2c0.1-0.1,0.2-0.1,0.2-0.2c0.1-0.3,0.1-0.7,0.2-1
	c0.3-1.1,1.3-2.1,2-1.8c1.1,0.4,1.8,2,1.4,3.1c-0.1,0.3-0.2,0.6-0.5,0.7C296.5,50.1,295.8,50.6,295.2,51z"/>
</svg>
