<?xml version="1.0" encoding="utf-8"?>
<!-- Generator: Adobe Illustrator 27.3.1, SVG Export Plug-In . SVG Version: 6.00 Build 0)  -->
<svg version="1.1" id="Layer_1" xmlns="http://www.w3.org/2000/svg" xmlns:xlink="http://www.w3.org/1999/xlink" x="0px" y="0px"
	 viewBox="0 0 913.8 672.2" style="enable-background:new 0 0 913.8 672.2;" xml:space="preserve">
<style type="text/css">
	.st0{fill:#565656;}
	.st1{fill:#282828;}
	.st2{fill:#FFFFFF;}
	.st3{fill:none;}
	.st4{fill:#1F191A;}
</style>
<g>
	<path class="st0" d="M289.2,283.1c7.5,6.8,10.6,13.7,12.3,23.5c0.8,4.5,1.8,9.1,1.4,13.6c-0.1,1-1.1,8.8-2.5,8.8c-2,0-2,3.1,0,3.1
		c8.5-0.1,5-21.2,4.3-25.3c-1.3-7.2-2.6-14.2-7.3-20c-5.3-6.6-12.6-11.1-17.9-17.7c-11.6-14.4-11.8-32.6-8.4-50
		c1.8-9.5,4.6-18.9,8.9-27.6c3-6,7.8-16.4,15.1-17.6c0.3,0,0.2-0.5-0.1-0.5c-10.7-0.7-18.1,17.7-21.2,25.3
		c-5.9,14.6-9.7,32.1-7.5,47.9C268.5,262.7,277.7,272.8,289.2,283.1z"/>
	<path class="st0" d="M330.4,322.8c0.6-8.3-1.5-16.1-2.4-24.2c3.7,9,11.3,17.9,21.4,18.8c10.6,1,20.5-6.5,25.8-15.1
		c0.6-1-0.9-2.3-1.7-1.3c-6,7.5-14.7,15.3-25.2,13.4c-10.4-1.9-17.3-13.1-19.4-22.7c-2.2-10.5,0.6-20.3,5.6-29.5
		c2.7-5,5.9-9.8,9.6-14.1c3.2-3.7,6.9-8.4,11.5-10.2c0.6-0.2,0.4-1.1-0.3-0.9c-5.4,1.2-9.3,5.6-13,9.5c-4.6,4.8-8.3,10.5-11.4,16.4
		c-5.1,9.8-7.4,20.7-4.6,31.4c-0.5,0.1-0.9,0.4-0.9,1c-0.1,5.8,1.4,11.2,2,16.9c0.7,6.3,0,12.7-1.2,18.9
		c-2.3,11.1-10.9,24.1-23.6,22.9c-6.1-0.6-12.7-3.3-17.1-7.7c-3.7-3.7-5.5-9.3-7.7-13.9c-3.3-7-8.6-27.8,4.6-29.4
		c0.5-0.1,0.5-0.7,0-0.7c-10-0.9-12.1,12.8-11,20.2c1,7.1,5.1,14.8,8.5,21c3,5.4,8,8.9,13.6,11.2c13.5,5.6,24.5,0.2,31.5-12.1
		C328.7,336.4,329.9,329.6,330.4,322.8z"/>
	<path class="st0" d="M397.9,315.7c14,1.9,22.3-9.3,31.2-18.2c0.9-0.9-0.3-2.6-1.4-1.8c-8.3,6.3-14.6,17-26.1,17.1
		c-11.9,0.1-19.3-9.8-22.4-20.2c-3.1-10.6-2.8-22.7,0.1-33.3c1.7-6.2,4.5-11.7,9.1-16.3c3.8-3.8,12.3-10.5,18.2-9.7
		c0.6,0.1,0.9-0.7,0.3-0.9c-5.3-1.8-12,2.2-16.2,5.2c-5.4,3.8-9.4,8.7-12,14.8c-5.4,12.4-6.3,28.1-2.5,41.1
		C379.2,303.9,386.4,314.1,397.9,315.7z"/>
	<path class="st0" d="M441.6,311.9c8.4,1.4,11.8-5.4,12.3-12.4c0.1-1.3-2-1.6-2.3-0.3c-0.7,3.7-1.2,7.7-5.3,9.4
		c-6.2,2.6-9.6-3.1-9.9-8.3c-0.5-7.9,0-16,0.3-23.8c0.3-7.3,0.8-14.6,1.2-21.8c0.3-4.9,1.5-19,8.6-20.1c0.5-0.1,0.4-0.9-0.1-0.8
		c-7.2,0.8-10.2,9.5-11,15.7c-1.8,14-1.9,28.5-1.9,42.6C433.5,298.8,432.4,310.3,441.6,311.9z"/>
	<path class="st0" d="M545.6,298.7c-1,4.1-3.5,6.1-7.3,7.4c-1.2,0.4-2.5,0.8-3.8,1.1c-2.9,0.6-6.6-0.7-8.2-3.4
		c-1.2-2-0.6-6.2-0.5-8.7c0.4-1.4,0.7-2.9,0.9-4.5c0.1-0.5-0.2-0.9-0.6-1c0.2-1.7,0.3-3.5,0.5-5.2c1.3-13.9,0.8-28.4,0.7-42.4
		c-0.1-11.1,0.1-22.2,2.1-33.2c1.5-8.1,3.6-18.8,13.1-20.6c0.5-0.1,0.5-0.9,0-1c-9.9-2.3-13.9,11.8-15.3,18.9
		c-3.4,16.2-2.4,32.6-2.9,49.1c-0.3,10.5,0.1,21-0.8,31.4c-0.2,2.5-0.7,5.8-0.9,9.1c-2.5,5.4-6.7,9.3-13.6,10.1
		c-6.2,0.7-11.4-1.5-14-6.1c1.5-5.4,1.9-11.4,2.8-16.2c0.3-1.3-1.6-1.9-2-0.6c-1,3.3-1.6,6.8-2.2,10.3c-0.2-0.1-0.3-0.3-0.5-0.4
		c-0.5-0.7-1.5-0.1-1.5,0.6c-0.2,2.1,0.1,4,0.6,5.7c-0.7,2.2-1.5,4.3-2.8,6.2c-3.1,4.9-8.2,6-13.7,5.9c-8.5,0-12.3-4.4-14.8-12
		c-4-12-2.5-22.5,1.7-34.3c3.8-10.7,11.8-24.1,23.6-27.7c0.3-0.1,0.2-0.5-0.1-0.5c-5.3-0.6-10.3,4.1-14,7.4
		c-5.6,4.9-9.1,11.1-11.7,18.1c-5.4,14.6-7.2,28.1-0.8,42.7c4.4,10,19.3,12.6,28.1,6.6c3.1-2.1,5-5.2,6.4-8.8
		c3,4.2,8.3,6.4,14.2,6.1c6.5-0.3,11.4-3.2,14.6-7.6c0.3,2.3,1,4.5,2.2,6.2c3.2,4.2,9.2,2.8,13.4,1.4c5.5-1.9,8.8-4.3,9.1-10.3
		C547.3,297.9,545.8,297.7,545.6,298.7z"/>
	<path class="st0" d="M373,407.2c-0.7,4.5,0,10.6-5,12.9c-5.2,2.4-12.5,0.6-15.1-4.3c-5.3-9.8-5.5-19.9-6-30.8c0,0,0,0,0,0
		c-0.1-1.2-1.9-1.6-2.1-0.3c-1.2,7.7-0.9,16.2,1.7,23.5c1.8,5,3.9,12.8,9.4,14.9c4.1,1.6,11.9,1.4,15.6-1.4
		c4.2-3.2,3.8-9.7,3.6-14.3C375,406.3,373.2,405.9,373,407.2z"/>
	<path class="st0" d="M404.3,439.6c-3,8.2-16.2,13.1-19.6,2.3c-2.2-7-2-15-1.5-22.2c0.5-6.9,1.5-13.7,1.6-20.6
		c0.1-7.7-0.7-15.3-1-22.9c0-1.1-1.7-1-1.7,0c0,0,0,0,0,0c-0.2,11.9,0.2,23.7-1.2,35.6c-1.1,9.9-2.2,20.2,0.4,30
		c3.7,13.9,22,11.7,24.7-1.6C406.2,438.9,404.7,438.5,404.3,439.6z"/>
	<path class="st0" d="M454.4,408.4c-2.7,10.5-14.3,15.2-24,17.1c-14.2,2.8-23.3-10.5-24.6-23c-1.1-10.3,2.2-21,7.4-29.8
		c4-6.8,10.3-15.8,18.9-16.4c0.6,0,0.8-1,0.2-1.1c-9.4-1.8-17.4,9.1-21.6,16c-7.2,11.8-10.5,26.9-6.1,40.3
		c3.8,11.4,14.4,19.8,26.7,17.2c10.7-2.3,24-7.7,25.6-19.9C457,407.3,454.8,407.1,454.4,408.4z"/>
	<path class="st0" d="M534.7,422.7c-5.7,7.1-15.7,3.2-16.8-5.2c-0.9-7.2,0-14.8,0.6-21.9c0.6-6.7,1-13.5,1.7-20.2
		c0.6-6,2.7-21,10.9-21.4c0.3,0,0.3-0.5,0-0.4c-7.6,0.4-11,8.4-12.6,14.9c-2.8,11.7-3.1,24.8-3.7,36.8c-0.2,3.7-0.7,8.4-0.1,12.7
		c-0.6-0.5-1.6-0.4-2,0.6c-1.9,5.7-12.3,11.8-16.9,5.4c-1.7-2.4-1.7-5.8-1.8-9c1.4-2.1,2.6-4.2,3.4-6.2c0.6-1.4-1.6-2.1-2.3-1
		c-0.4,0.6-0.9,1.3-1.4,2.1c-0.3-0.5-1.2-0.5-1.5,0c-0.5,0.8-0.5,1.2-0.2,1.9c0,0.2,0,0.4,0,0.6c-4.4,6.4-10.8,13.9-18.1,12.5
		c-9-1.8-12.7-14.1-13-21.9c-0.7-16.5,6.2-39.7,25.2-42.6c0,0.8,0.1,1.5,0.1,2.2c0.1,1.9,2.8,1.9,2.9,0c0.8-11.7,0.1-32.1,14.8-35.8
		c0.4-0.1,0.4-0.6,0-0.7c-6.1-1.8-10.8,4.5-13.2,9.2c-3.6,7.1-4.8,15.9-4.7,23.9c-9.9-0.3-19.2,8.1-23.2,16.7
		c-4.6,9.9-6.4,22.6-4.3,33.3c1.6,8,8.3,19.6,17.9,18.7c5.6-0.6,11.1-4.9,15.3-10c0,4.4,1,8.6,5.2,10.5c6.6,3,16.7-1.4,18.2-8.8
		c0.7,3.2,2.2,6,5.1,7.7c5.4,3.3,13,1.9,16.5-3.3C537.5,423.1,535.6,421.6,534.7,422.7z"/>
	<path class="st0" d="M613.4,414.6c-7.8,13.8-25,6.4-29.7-5.6c2.5-4.5,4.2-9.4,5.3-13.6c0.4-1.4-1.8-2.5-2.4-1
		c-1.6,3.4-3,6.9-4.6,10.3c-0.6-0.2-1.4,0.1-1.4,1c0,0.6,0,1.2,0,1.8c-1.5,2.7-3.2,5.3-5.4,7.6c-9.7,9.9-23.7,1.3-23.8-11.5
		c-0.1-8.7,3.8-17.6,7.9-25.1c4.3-8,11-18.8,20.9-20c0.2,0,0.2-0.3,0-0.3c-11.4,0.4-18.2,9.6-23.3,18.9c-5.2,9.3-10.7,21.8-7.8,32.6
		c2.6,9.6,14.3,16.6,23.6,11.6c3.5-1.9,6.6-5.1,9.1-8.8c5.3,13.5,27.9,19.1,34.4,3.4C616.6,414.2,614.2,413.3,613.4,414.6z"/>
	<path class="st0" d="M329.2,394.9c0.1-11.5,0.7-22,4.2-32.9c3.2-10.1,7-21.4,18.4-24.8c0.1,0,0.1-0.2-0.1-0.2
		c-12.9,1.9-16.6,12-20.3,23.3c-2.5,7.5-4.1,14.6-4.5,22.5c-0.5,8.9,0,17.8-1.3,26.6c-2.1,14-6.6,31.4-1.5,45.2
		c1.2,3.4,3.6,6.2,7.4,6.6c5.3,0.5,8-3.2,9.8-7.6c0.4-0.9-1-1.4-1.5-0.6c-3,4.8-10.5,7.5-13.1,1c-1.2-3-1.4-6.4-1.6-9.6
		c-0.3-5.4,0.2-10.8,0.8-16.1C327.2,417.1,329.1,406.1,329.2,394.9z"/>
	<path class="st0" d="M399.5,330.8c-8.2-1.6-17.6,3-23.1,9c-6.4,6.9-8.6,16.4-10.9,25.3c-0.5,1.9,2.4,2.7,2.9,0.8
		c1.9-7.4,3.6-15.2,8-21.6c5.8-8.4,14.3-10.1,23.1-13.3C399.5,331,399.6,330.9,399.5,330.8z"/>
</g>
<g>
	<path class="st4" d="M316.7,269.4c-7.1-8.4-18.3-14-22.5-24.5c-4.2-10.5-3-23-1.6-34c0.9-6.9,2.4-16.5,6.5-23
		c5.6-8.8,11.6,6.2,13.1,11.4c2,7,2.3,14.4,2.1,21.7c-0.2,6.7-3.3,16.5,0.7,22.4c1.6,2.4,4.8,3.6,7.5,2c5.4-3.3,6.4-10.2,7.1-16.1
		c0.8-7.2,1-14.4,0.3-21.6c-1.1-11.4-4.4-24-12.8-32.4c-7.4-7.5-19-9.1-27-1.7c-6.8,6.2-9.7,16.1-11.6,24.8c-4.5,21-7,47.6,8.3,65
		c7.6,8.6,17.6,14.1,23.1,24.6c4.4,8.4,5.3,18.7,4.1,28c-0.5,4.5-3.8,19.8-11.3,14.9c-6.8-4.4-8.4-18.1-9.7-25.3
		c-1.9-10.3-17.6-5.9-15.7,4.3c3,15.8,10.4,41.5,31.4,37.7c20.2-3.6,23.3-30.2,21.5-46.7C328.8,289.1,324.4,278.5,316.7,269.4z"/>
	<path class="st4" d="M372.7,236.7c-3.6-3.6-9.8-3.7-14.4-2.6c-13.7,3.5-21.2,20.3-23.4,32.9c-2.7,15.8,1.5,35.7,16.4,44.5
		c16.4,9.7,27.7-8.4,29.3-22.6c1.6-14.3,1.4-32.5-7.9-44.5C374.4,242,375.7,239.7,372.7,236.7z M364.9,282.8
		c-0.2,4.7-0.3,10.3-3.3,14.3c-1.2,1.6-0.9,1.4-2.3,0.8c-2.9-1.3-5-4.9-6.5-7.5c-5.5-10-4.2-23.6,0.6-33.6c1-2.1,2.2-4.4,3.6-6.3
		c0.4,0.7,0.9,1.4,1.5,2C366,259.7,365.3,273.2,364.9,282.8z"/>
	<path class="st4" d="M418.9,287.4c-3.6,3.8-10.7,12-16.2,6.5c-5.5-5.5-4.5-16.2-3.7-23.2c0.7-6.4,2.1-12.9,4.3-19
		c1.7-4.7,7.9-15.7,12.8-5.9c1.3,2.6,5.6,1.4,5.5-1.5c-0.4-12.8-15.8-16.5-24.3-8.6c-8.5,7.8-11.3,21.2-13,32.1
		c-2.2,14.1-2.3,32,11.4,40.7c12.7,8,28-0.7,35.5-11.6C436.2,289.5,425,281.1,418.9,287.4z"/>
	<path class="st4" d="M442.7,238c-0.3,4.5,0.6,9.2,0.6,13.8c0.1,5.6-0.3,11.3-0.7,16.9c-0.8,10-2,20-2.2,30
		c-0.2,10.1,15.8,10.1,15.7,0c-0.1-10.7,0.9-21.3,1.1-32c0.2-10,1.1-23-3.8-32C450.5,229.4,442.1,232.4,442.7,238z"/>
	<path class="st4" d="M441.4,210.4C441.4,210.4,441.4,210.4,441.4,210.4C441.4,210.4,441.4,210.4,441.4,210.4L441.4,210.4z"/>
	<path class="st4" d="M441.3,216.8c1.3,2.1,3.4,3.2,5.8,3.3c1,0,2-0.3,3-0.5c2.2-0.7,4.3-2.5,4.8-4.8c0.4-1.8,0.3-3.7-0.7-5.3
		c-0.9-1.5-2.4-2.7-4.1-3.2c-1.2-0.3-2.4-0.3-3.7,0c-1.2,0.3-2.2,0.9-3,1.8c-0.3,0.2-0.7,0.5-1,0.8c-0.6,0.6-0.9,1-1.1,1.5l0.2-0.2
		c-0.2,0.3-0.3,0.6-0.5,0.9l0.3-0.6c-0.1,0.2-0.2,0.5-0.3,0.7c0,0,0,0,0,0c0,0,0,0.1,0,0.1c-0.1,0.2-0.2,0.4-0.2,0.6
		c0.1-0.2,0.1-0.3,0.2-0.5C440.3,213.1,440.3,215.3,441.3,216.8z"/>
	<path class="st4" d="M441.3,210.4L441.3,210.4C441.4,210.3,441.4,210.3,441.3,210.4C441.4,210.3,441.4,210.4,441.3,210.4z"/>
	<path class="st4" d="M516.2,283.1c-0.8,0.6-1.7,1.1-2.5,1.7c-1.6-2.8-2.3-6.7-3-10.2c-1.4-7.5-1.7-15.2-1.7-22.8
		c0-4.1-2.7-6.7-5.9-7.5c-2.5-4.1-6.7-8-10.7-8.9c-6.2-1.5-12,2.2-15.9,6.8c-8.8,10.4-11.8,25.8-13.4,38.9
		c-0.8,6.9-0.7,14.1,2.7,20.5c4.3,7.9,13.2,11.6,21.1,6.2c5.7-3.8,9.2-10.8,11.8-17.6c1.7,3.9,4.1,7.4,7.9,9.5
		c6.6,3.6,14.1,0.4,18.8-4.7C530.8,289,523.4,277.8,516.2,283.1z M493.4,249.6c-3.6,12.7-5.4,26.5-11.3,38.4c-0.5,1-1.8,4.2-2.7,5.7
		c-0.2-0.2-0.4-0.6-0.5-1.5c-0.2-1.2-0.7-2.4-0.8-3.6c-0.3-3.3,0.1-6.8,0.6-10c1.1-8.8,3.2-18.2,7.6-26.1c1-1.8,3.2-5.2,5.1-4.8
		c0.9,0.2,1.6,0.5,2.3,1C493.6,249,493.5,249.3,493.4,249.6z"/>
	<path class="st4" d="M547.5,293.9c-1.7-2.9-0.7-11.1-0.5-15.2c0.3-7.7,0.5-15.3,0.4-23.1c-0.1-10.9-0.2-21.8-0.2-32.6
		c0-10.2,1-21.1-0.7-31.3c0-0.4-0.1-0.8-0.2-1.2c0-0.1,0-0.2,0-0.3c0,0,0,0,0,0c-1.5-3.6-7.8-5.7-9.4,0c-3,10.7-2.5,22.9-3.1,33.9
		c-0.6,12.1-1.3,24.3-1.4,36.4c-0.1,7.4-0.7,14.6-1,22c-0.3,6.3-0.7,13.7,2.5,19.3C538.9,310.7,552.8,302.6,547.5,293.9z"/>
</g>
<g>
	<path class="st4" d="M391.5,331.9c-8.3,8.8-11.5,20.8-16.2,31.6c-1.5,3.6-3.1,7.2-4.5,10.8c-0.4-3.2-0.9-6.3-1.4-9.5
		c-1.7-9.8-4-22.4-13.6-27.6c-4.6-2.5-9.9-0.2-11.5,4.7c-5.9,17.9-7.9,37.1-9.5,55.8c-0.8,9.6-1.1,19.2-1,28.9
		c0.1,4.8,0.2,9.7,0.6,14.5c0.3,3.8,1.4,8.7,0.2,12.5c-1.1,3.4,3.4,5.7,5.8,3.4c5.2-4.9,4.4-14.1,4.8-20.7
		c0.7-10.5,1.4-20.9,2.5-31.3c1.3-12.7,2.9-25.7,5.7-38.3c0.4,2.1,0.7,4.2,1.1,6.3c2.2,13.3,3.2,26.8,5.3,40.1
		c1.2,7.9,14,7.5,15.5,0c2.9-14.4,8.2-28,14-41.4c1.4-3.3,2.7-6.9,4-10.5c0.2,8.3-0.5,16.7-1.2,24.8c-1.5,17.4-2.1,34.7-2.1,52.1
		c0,10.4,16.1,10.4,16.1,0c0-18.1,0.8-36,2.3-54.1c1.3-16,2.5-33.3-3.4-48.5C402.9,330,396,327.1,391.5,331.9z"/>
	<path class="st4" d="M448.4,399.8c-3.7,2.8-7.9,6-12,7.4c-2.2,0.8-1.6,0.7-3.1,0.5c0,0,0,0,0,0c-0.1,0-0.3-0.1-0.7-0.2
		c0.1,0,0.6,0.5-0.5-0.4c1,0.9-0.9-1.1-0.5-0.7c-0.2-0.2-0.3-0.4-0.4-0.5c2.8-0.3,5.5-1.1,7.3-2.1c7.1-4.1,10.7-12.5,12.6-20.1
		c2-8.1,2.4-18.1-4-24.5c-4.7-4.7-12.2-6.2-18.1-2.9c-9.1,5-13.1,17-14.7,26.6c-1.8,10.6-2.2,23.4,4.2,32.7
		c10.4,15,28.7,6.2,39.7-3.2C464.9,406.5,455.7,394.3,448.4,399.8z M428.9,394.1c0-3.9,0.3-6.5,0.9-9.7c0.4-1.8,0.8-3.6,1.4-5.4
		c0.4-1.3,1.4-3.8,1.4-3.7c0.7-1.4,1.4-2.8,2.3-4c-0.2,0.3,0.7-0.7,1.1-1.2c-0.1-0.1-0.1-0.1-0.2-0.2c-0.1,0-0.1,0-0.1,0
		c0,0,0,0,0-0.1c0,0,0,0-0.1-0.1c0,0,0,0,0.1,0.1c0.2-0.4,0.4-0.2,0.5,0c0,0-0.1,0-0.1,0c-0.1,0-0.2,0-0.2,0c0,0,0,0,0,0
		c0,0,0,0,0,0c0,0,0,0,0.1,0c0.1,0,0.1,0.1,0.2,0.1c0.1-0.1,0.1-0.1,0.1-0.1c0,0,0,0.1-0.1,0.1c0.1,0,0.1,0,0.2,0c0,0,0,0,0,0
		c0,0,0,0,0,0c0.3,0.1,0.7,0.1,0.8,0.6c1.8,5.1,0.6,10.8-1.1,15.7c-0.7,2-1.5,4-2.9,5.7c-1.1,1.4-2.6,2.8-4.2,3.6
		C428.9,395.2,428.9,394.7,428.9,394.1z"/>
	<path class="st4" d="M435.8,369.8c0,0-0.1-0.1-0.1-0.1c0,0,0,0,0,0C435.7,369.8,435.7,369.8,435.8,369.8
		C435.8,369.8,435.8,369.8,435.8,369.8C435.8,369.8,435.8,369.8,435.8,369.8z"/>
	<path class="st4" d="M436.3,370c-0.1,0.1-0.2,0.1-0.2-0.1c0,0,0,0,0,0c0,0-0.1,0.1-0.1,0.1C436.2,370.3,436.3,370.2,436.3,370z"/>
	<path class="st4" d="M515.4,410.8c-0.5-3.1-0.5-6.3-0.6-9.4c-0.2-7.4-0.7-14.8-0.9-22.1c-0.5-15.9-0.6-31.7-2-47.6
		c-0.8-9.6-15.4-9.9-15.2,0c0.2,8.9-0.7,17.8-1.9,26.5c-4.5-1.4-9.6-0.6-13.7,2.2c-11.9,8.2-14.3,26.9-12.7,40.1
		c0.8,6.2,2.6,12.4,7.4,16.7c5,4.4,11.8,4.8,16.9,0.4c3.1-2.6,5.4-6.2,7.1-10.1c0.2,4.1,0.6,8.3,1.2,12.1c1,5.6,9,7.2,12.6,3.3
		c0.3-0.3,0.6-0.6,0.9-0.9c2.5-2.7,2.5-5.9,1.2-8.4C515.7,412.6,515.5,411.7,515.4,410.8z M492.4,374c-1.6,9.6-2.9,21.7-8,30.1
		c-2.1-4.2-2-10.1-1.8-14.7c0.3-5.6,1.5-12.6,4.8-17.4c1-1.5,2.5-3,4.4-3.2c0.4,0,0.9,0,1.4,0.1C493,370.7,492.7,372.3,492.4,374z"
		/>
	<path class="st4" d="M538,356.6c-1.5-6.3-9.7-4.7-11.2,0c0,0,0,0,0,0c-2.5,10.6-1.2,22.8-1.3,33.6c0,5.5,0,11,0,16.5
		c0,5.3-0.6,10.8,0.7,16c1.7,6.9,12.6,7.1,14.2,0c2.3-10,0.2-22.2-0.2-32.5C539.6,379.3,540.6,367.2,538,356.6z"/>
	<path class="st4" d="M528.8,339.4c1.1,0.6,2.3,1,3.5,1c1.3,0,2.5-0.3,3.5-1c1.9-1.1,3.1-3,3.4-5.1c0.1-0.6,0.1-1.3,0-1.9
		c0.1-0.7,0.1-1.5-0.1-2.1c-0.3-0.9-0.7-1.7-1.4-2.4c-0.8-0.9-2.6-1.7-3.8-1.6c-0.2,0-0.4,0-0.5,0.1c-0.1,0-0.2,0-0.3,0
		c0,0,0,0-0.1,0c-1.7-0.5-3.6-0.2-5.1,0.7c-1.9,1.1-3,2.9-3.3,5C524.2,335.1,526,338.1,528.8,339.4z"/>
	<path class="st4" d="M613.5,408.8c-12.7-11.1-12.4-28.8-15.2-44.2c-0.8-4.2-4.9-6-8.7-5.6c-4.7-3.4-10.5-2.8-15.3,0.3
		c-9.5,6.3-14.9,20.6-16.5,31.4c-1.6,11.1,2,33.4,18.6,25c6.2-3.1,10.5-8.5,13.5-14.8c2.8,7.5,7.1,14.3,14.6,19.5
		C611.4,425.4,619.9,414.4,613.5,408.8z M575,394.9c-0.8,1.5-1.8,2.7-2.9,3.9c-0.2-1.8-0.4-3.5-0.3-4c0.1-6,2.1-12.1,4.6-17.5
		c1.2-2.6,3-7.1,5.5-8.8c0.2-0.1,0.3-0.2,0.5-0.3C580.9,377.3,579.4,386.9,575,394.9z"/>
</g>
<path class="st4" d="M324.9,233.3c-1.3,4.8-1.8,10.4-7.5,12.3c-5.2,1.7-10-1.8-12.6-6.1c-3.7-6.1-2.6-14-1.9-20.7
	c1.2-10.5,3-22.6-6-30.1c0,0,0.1-0.1,0.1-0.1c0.3-0.3,0.3-0.8-0.2-0.8c-0.5,0-1,0-1.4-0.1c-0.7,0-1.1,0.9-0.6,1.5
	c13.9,13.7-0.4,33.1,5.9,49.1c2.3,5.8,7.8,11.3,14.4,10.7c8.6-0.7,10.4-7.8,11.5-15.1C326.9,232.6,325.2,232.1,324.9,233.3z"/>
<path class="st4" d="M352,256.5C352,256.4,352.1,256.4,352,256.5c0.2-0.3,0.3-0.6,0.5-0.9c0.2-0.3-0.2-0.8-0.5-0.5
	c-0.4,0.1-0.7,0-0.9-0.1c-0.1-0.1-0.1-0.2-0.2-0.4c0,0,0,0,0,0c0-0.1-0.1-0.2-0.1-0.2c-0.8-0.9-2.1,0.3-1.6,1.2
	c4.2,8.1,5.4,16.7,5.1,25.8c-0.1,3.2,0.5,12-2.8,13.6c-1.5,0.7-0.4,3.2,1.1,2.7c4.7-1.6,4.3-10.3,4.5-14.3
	C357.4,274.3,356.7,264.5,352,256.5z"/>
<path class="st4" d="M420.2,243.7c0.1,2.8-4.7,3.1-6.6,3.1c-2.7-0.1-5.4-0.8-6.7-3.4c-0.7-1.4-2.6-0.3-2.4,1
	c1,6.7,16.4,6.7,16.1-0.7C420.6,243.4,420.2,243.4,420.2,243.7z"/>
<path class="st4" d="M425.5,286.7c-4.8-1.4-9.4-1.6-14.2,0.4c-3.1,1.3-9.6,8.4-13.4,6.7c-1.7-0.8-3.2,1.7-1.5,2.5
	c3,1.4,6.2-0.3,8.8-2c2.5-1.6,4.5-3.6,7.2-4.8c3.9-1.8,8.8-2.5,13-2.6C425.6,287,425.6,286.7,425.5,286.7z"/>
<path class="st4" d="M453.1,212c-0.8-1.2-2.5-0.1-1.9,1.1c3.3,6.3-7.3,15-11.2,7.6c-2.7-5,0.3-10.9,5.2-12.8c0.1,0,0.1-0.1,0-0.2
	c-3.3-0.8-6.1,2.4-7.3,5.1c-1.5,3.4-1.4,8,1.2,10.8C445.9,231,458.1,219.8,453.1,212z"/>
<path class="st4" d="M451.6,399.9c-5.4-1.2-11.1,0.4-16.6-0.8c-1.8-0.4-2.6,2.4-0.8,2.8c5.5,1.1,12,0.5,17.3-0.8
	C452.1,400.9,452.2,400,451.6,399.9z"/>
<path class="st4" d="M534.9,334.8c-1.3,2.2-2.8,4.4-5.1,5.7c-2.6,1.5-5.5,0.1-6.1-3c-0.4-2.2,0.9-4.8,2.3-6.5
	c1.7-2.1,3.2-2.4,5.8-2.7c0.2,0,0.3-0.2,0.2-0.4c-1.5-2.8-5.8-0.7-7.4,0.8c-2.4,2.3-4.5,6.4-3.6,9.8c1,3.5,4.5,6.3,8.2,5.3
	c3.7-1,6.6-4.7,7.9-8.2C537.5,334.5,535.6,333.7,534.9,334.8z"/>
<g>
	<path class="st4" d="M681.7,145.7c-0.3-0.2-0.6-0.3-1-0.4c-1.4-0.4-2.6,0-3.7,0.8c-0.4,0.1-0.9,0.2-1.3,0.4
		c-2.1,0.7-3.9,2.4-4.3,4.6c-0.1,0.6-0.1,1.3,0,1.9c0,1,0.1,1.9,0.6,3c1.7,3.7,7.7,8.1,11.3,4.2c0.4-0.4,0.7-0.9,1-1.4
		c0.8-0.9,1.3-2,1.6-3.1c0.1-0.4,0.2-0.9,0.3-1.4c0-0.2,0.1-0.3,0.1-0.5c0.5-2.4,0.3-5.1-1.7-6.8
		C683.7,146.3,682.7,145.8,681.7,145.7z"/>
	<path class="st4" d="M660.6,143.1c0.1,2.7,3.2,3.8,5.1,2.1c5.8-4.9,16.5-8,22.7-2.3c4.1,3.8,10-0.9,7.6-5.9
		C690,124.8,659.9,127.7,660.6,143.1z"/>
	<path class="st4" d="M694,112c-6.7-2.7-13.5-2.6-20.4-1.4c-6.4,1-13.1,3.3-18.4,7.1c-4.4,3.2-10.5,9.1-8.7,15.2
		c0.8,2.6,3.8,2.9,5.4,1.4c0,0,0,0,0,0c1.5-1.5,2.4-3.4,3.9-4.9c1.6-1.5,3.6-2.5,5.6-3.4c4.5-2.1,9.3-3.3,14.2-4.1
		c4.3-0.7,8.6-0.9,12.8,0.4c2.5,0.8,5,2,7,3.7c2.4,1.9,3.6,4.7,6.3,6.2c3.6,2,7.2-0.6,7.6-4.4C710.1,120.2,699.9,114.3,694,112z"/>
	<path class="st4" d="M704.9,96.6c-8.8-4.6-19-6.3-28.9-5.7c-10.1,0.6-20.1,3.4-28.8,8.6c-4.2,2.5-8.1,5.8-11,9.7
		c-2.4,3.1-5.9,8.2-5.9,12.5c-0.9,3.2,3.7,5.6,6.4,3.4c2.8-2.3,4.5-6.1,7.2-8.7c2.8-2.7,5.9-4.9,9.2-6.9c6.9-4.1,15-6.4,23-6.9
		c7.8-0.5,15.9,0.5,22.9,4.2c3.2,1.7,6.1,3.8,8.5,6.5c2.8,3.1,4,8.5,8.5,9.5c2.1,0.5,4.4-0.3,5.6-2.3
		C726.4,111.9,711.4,100,704.9,96.6z"/>
</g>
<path class="st4" d="M746,252.1c0.5-5.7-4-10.2-8.8-12.7c-3.3-1.7-5.4-3.1-9.2-3.2c-3.8,0-11.2,1.6-9.6-4.6c0.8-2.9,1.6-5.4,2.8-8.3
	c1.3-3.1,1.2-6.6,0.8-9.9c-0.5-3.3-2.8-10.4-7.7-8.8c-2.8,0.9-3.4,6.3-4.4,8.5c-2,4.6-3.8,9.8-7.2,13.7c-2.7,3.1-7.3,4.6-9.3,8
	c-1,1.7-1,3.9-2,5.6c-0.5,0.8-1.1,1.4-1.8,1.9c-0.6-2-1.9-3.4-4.6-4.2c-5.3-1.5-11-0.5-16.4-0.4c-1.5,0-1.8,2-0.9,2.7
	c-1,9.6-1.3,19.5-1.5,29.2c-0.1,4.6-1.3,11.3,0.8,15.6c2,4.1,8.1,2.9,11.8,2.5c3.4-0.4,9-0.3,10.9-3.6c0.8-1.3,1.1-2.9,1.2-4.7
	c3.4,0.3,6.9,0.6,9.7,2.2c3.5,1.9,4.8,2.5,8.9,3c8.1,1,18-1.5,26-2.8c2.3-0.4,3.9-0.4,5.4-2.4c1.9-2.4,3.9-6.4,4.2-9.5
	c0.1-1.1-0.3-2.2-0.3-3.3c0-1.5,0.6-2.5,0.8-3.8C746.4,259.2,745.7,255.6,746,252.1z M686.7,282.9c0.2-0.2,0.4-0.5,0.5-0.7
	C687.1,282.4,686.9,282.7,686.7,282.9z M742.9,261.3c-0.4,2-0.9,3.1-0.9,5.1c0.1,4.2-0.8,9.2-4.8,11.4c-3.4,1.9-7.8,2-11.6,2.5
	c-4.3,0.7-7.8,2-12.2,1.5c-2.8-0.3-7.5-0.4-9.8-1.9c-0.7-0.5-1.3-1.1-2.1-1.5c-3.1-1.5-7.1-1.6-10.7-1.9c-0.2-2.8-0.7-5.7-0.8-7.9
	c-0.3-7-0.1-14.1,0-21.1c0-0.9,0-1.7-0.1-2.5c2.1-0.9,3.6-2.4,4.8-5.4c0.7-2,1-3.4,2.7-4.8c1.1-0.9,2.5-1.5,3.6-2.5
	c2.5-2,4.6-4.5,6.3-7.2c1.8-3,3.1-6.5,4.6-9.8c0.6-1.4,1.2-2.7,1.8-4.1c0.2-0.6,0.4-1.8,0.8-2.3c1.7-2.3,3.2,0.2,4,2
	c1.5,3.2,1.1,8.4-0.2,11.5c-1.2,2.9-1.9,5-3,7.9c-1.4,3.7,0.1,6.6,3.4,8.4c2,1,3.2,0.7,5.2,0.5c4.8-0.5,8.9,1,13.1,3.3
	c3.7,2,5.8,6,5.8,10C743,255.4,743.5,258.6,742.9,261.3z"/>
<path class="st4" d="M548.7,58.3c-3.5-4.7-8.9-7.4-14.6-8c-5.6-0.6-13.1-0.2-17.1,4.3c-1.9,2.1-2.7,5.1-3.7,7.7c-1.6,4-3,8-3.5,12.2
	c-1,8.1,0.4,17.4,2,25.3c1.8,8.9,5.4,16.8,9.1,25c2.3,5.1,4.4,13.9,9.2,17.8c-0.2,1.2,1.6,2.1,2.5,0.8c4.2-6.5,8.1-13.7,11.6-20.7
	c3.3-6.6,6.7-13.6,8.6-20.8C556.4,87.6,558,70.8,548.7,58.3z M522.7,84.4c-2.8-3.2-2.7-8.3-2.1-12.2c0.6-4.1,3.4-8.1,7.5-9.4
	c0.4-0.1,0.8-0.2,1.2-0.3c0.8-0.4,1.8-0.6,2.7-0.7c4.2-0.3,7.3,2.1,10,5c1,1,1.7,2.1,2.1,3.3c0.2,1.3,0.5,2.7,0.8,4
	c0,5.8-4.4,11.6-10.3,12.9C530.7,87.9,525.7,87.8,522.7,84.4z"/>
<path class="st4" d="M773.4,376c-6.2-12.8-20-26.8-35.2-26.3c-8.2,0.3-16.4,4.5-23.4,8.6c-6.8,4-12.1,9.6-15.8,16.6
	c-6.8,12.6-13.3,33.3-1.6,45.2c0.1,0.1,0.2,0.2,0.4,0.3c0.7,1.1,1.5,2.1,2.4,3.1c5.1,5.6,12.3,9.7,19.7,11c8.3,1.5,18,2.5,26.2,0
	c7.2-2.2,14.5-7.5,19.3-13.2C776.3,408.3,781.1,392,773.4,376z M747.7,392.2c-1.8,2.7-6,4.9-8.8,6.4c-2.4,1.3-4.9,2.2-7.3,3.6
	c-1.7,1-3.3,2.3-5.1,2.9c-2.9,0.9-4-0.2-4.1-3.1c-0.1-4.8,0.1-9.6,0.3-14.5c0-0.1-0.1-0.2-0.1-0.3c-0.1-1.1,0-2.2,0.2-3.3
	c0.1-0.9,0.8-1.7,1.8-1.4c4.2,1.3,8.3,2,12.5,3.7c3.1,1.2,8.5,1.9,10.6,4.7C748,391.2,747.9,391.9,747.7,392.2z"/>
<g>
	<path class="st4" d="M668.5,486.7c-6.8-0.9-13.5-1.1-20.3,0c-5.2,0.8-10.8,2-15.7,4.3c-0.5-1.4-0.8-3-1.6-4.3
		c-0.9-1.5-2.3-2.7-3.7-3.7c-3.3-2.2-7.1-2.9-11-3.2c-9-0.8-18,1.6-23.8,9.2c-4.2,5.5-10.6,16.3-4.6,22.5c2.6,2.7,6.2,3.5,9.9,3.9
		c0.8,0.1,2.8-0.1,3.5,0.2c0.3,0,0.7,0,1,0c-0.3,0.8-0.5,1.6-0.7,2.4c-0.4,1.6-0.9,3.4-0.9,5c0,1.1,1.4,1.6,2.1,0.9
		c2.7-2.6,5.2-6.7,9.5-6.6c2.3,0.1,4.1,0.9,6.3,0.1c0.6,1.7,1.6,3.2,3.1,4.7c4.8,4.9,12,7.6,18.4,9.6c2.8,0.9,5.8,1.9,8.8,2.1
		c2.2,0.2,4.4,0.3,6.7,0.5c0.8,0.1,3.4-0.2,4,0.2c0.2,0.1,0.4,0.2,0.5,0.2c0.6,2.3,2.7,4.6,3.8,6.4c1,1.7,2,4.4,3.7,5.4
		c0.8,0.5,1.7-0.2,1.8-1c0.5-5.2,0.4-10.7,0.4-16c0,0,0.1,0,0.1,0c5.7,0,9.6-2.4,14.1-6.1c4.5-3.7,8.5-9.2,9-15.1
		C694.1,495.6,679.4,488.2,668.5,486.7z M609.1,514.9c-2,0.8-3.7,2.5-5.2,4.1c0.8-3,1.3-6-2.7-6c-3.8,0-8.9-0.2-11.6-3.3
		c-3.6-4.1-0.3-11.3,2-15.2c4.6-7.5,12-13.1,21.1-12.6c4.1,0.2,8.5,0.5,12.2,2.6c2.1,1.2,3.8,2.9,4.7,5.1c0.3,0.8,0.5,1.7,0.7,2.4
		c-0.7,0.4-1.3,0.8-2,1.3c-1.9,1.3-3.7,3.1-5.2,5c0-0.1,0-0.1,0-0.2c-0.1-0.8-0.2-1.4-0.8-1.9c-0.5-0.5-1.2-0.8-1.9-0.8
		c-0.7,0-1.4,0.3-1.9,0.8c-0.1,0.2-0.3,0.4-0.4,0.6c-0.2,0.4-0.4,0.9-0.4,1.4c-0.1,0.9,0.3,1.6,0.8,2.2c0.4,0.5,1.3,0.8,1.9,0.8
		c0.3,0,0.5-0.1,0.8-0.1c-2.7,4.3-4.3,9.3-3.4,14C614.9,516,612,513.8,609.1,514.9z M687.5,516c-2,3-4.5,5.2-7.4,7.4
		c-1.2,0.9-2.5,2-3.9,2.7c-2.1,1-4.2,1.1-6.4,1.3c-0.2-0.1-0.4-0.1-0.6-0.1c-0.2,0.1-0.4,0.1-0.6,0.2c-0.3,0.1-0.5,0.3-0.6,0.5
		c-0.4,0.2-0.7,0.5-0.7,1.1c0.1,4.4,0.1,9.1-0.1,13.6c-0.6-1.1-1.2-2.3-1.6-3c-1.2-1.9-3.5-4.2-4.1-6.2c0,0,0,0,0,0
		c0-0.2-0.2-0.3-0.3-0.4c-0.1-0.2-0.2-0.4-0.4-0.5c-1-0.8-2.4-0.4-3.6-0.4c-3.3-0.1-7.4-0.3-10.6-1c-6.3-1.4-12.7-3.7-18.2-6.9
		c-2.9-1.7-5.8-3.8-7.3-6.9c-2-4.1-0.8-9.2,1.2-13.1c3.6-7.1,10-11,17.4-13.2c14.6-4.4,30.9-3.9,43.9,4.5
		C691.1,500.4,692.6,508.6,687.5,516z"/>
	<path class="st4" d="M638.1,506.6c-0.9,0-1.9,0.4-2.6,1.1c-0.6,0.6-1.1,1.7-1.1,2.6c0.1,2,1.6,3.7,3.7,3.7c0.9,0,1.9-0.4,2.6-1.1
		c0.6-0.6,1.1-1.7,1.1-2.6C641.7,508.3,640.2,506.6,638.1,506.6z"/>
	<path class="st4" d="M653.8,505.4c-0.9,0-1.8,0.4-2.5,1c-0.6,0.6-1.1,1.6-1,2.5c0.1,1.9,1.5,3.5,3.5,3.5c0.9,0,1.8-0.4,2.5-1
		c0.6-0.6,1.1-1.6,1-2.5C657.2,507,655.8,505.4,653.8,505.4z"/>
	<path class="st4" d="M669.1,504c-1.3,0.1-2.6,0.7-3.3,1.9c-0.4,0.7-0.6,1.6-0.5,2.4c0.1,0.9,0.5,1.5,1,2.2l0.1,0.1
		c0.5,0.7,1.8,1.1,2.6,1.1c0.9,0,2-0.3,2.6-1.1l0.1-0.1c0.4-0.5,0.8-1,1-1.7c0.3-0.8,0.1-1.7-0.2-2.5C672,505,670.6,503.9,669.1,504
		z"/>
	<path class="st4" d="M609.5,495.8c-0.9,0.1-1.6,0.5-2,1.3c0,0.1,0,0.2-0.1,0.3c-0.5,0.7-0.6,1.6-0.2,2.4c0.9,1.5,2.7,1.3,3.7,0.1
		c0.5-0.6,0.9-1.3,0.8-2.1C611.6,496.8,610.7,495.7,609.5,495.8z"/>
	<path class="st4" d="M600.7,495.9c-0.5-0.3-1.1-0.3-1.7-0.4c0.2,0,0.4,0,0.5,0.1c-0.9-0.1-1.7,0-2.4,0.6c-0.6,0.6-0.8,1.3-0.7,2.1
		c0.1,0.7,0.5,1.3,1,1.7c0.5,0.8,1.5,1.3,2.5,0.9c1.1-0.5,1.8-1.6,1.9-2.8C602,497.2,601.5,496.3,600.7,495.9z"/>
</g>
<path class="st4" d="M497.5,516.1c-4.5-8.4-9.6-15.6-18.8-19.1c-5.3-2.1-10.6-2.7-16.2-2.6c-4.6,0.1-8.6,0-12.8,1.4
	c-5.1,1.1-9.8,3.4-14.1,7.5c-7,6.7-11.1,15.8-13.5,25c-2.6,10.1-0.3,18.3,3.4,27.7c3.1,7.8,9,15.6,16.4,19.7c7.2,4,14.9,6.3,23,5.6
	c0.2,0,0.4,0,0.5,0c1.3-0.1,2.7-0.3,4-0.6c9.2-2.1,17.1-5.4,23.8-12.3c6.4-6.6,9.7-16.1,11-25C505.6,533.9,501.9,524.3,497.5,516.1z
	 M501.7,535.2c0,0.2,0,0.4,0.1,0.6c-2-0.4-4.2-0.1-6.2-0.1c-3.3,0-6.6,0-10,0.2c-2.8,0.1-5.6,0.2-8.4,0.3c-0.1-4.8-0.2-10-0.8-15.2
	c6.3-0.7,12.4-2.5,17.1-6.2c0.1,0,0.1-0.1,0.1-0.1C497.2,520.9,500.5,527.8,501.7,535.2z M474.6,540c0,6.4,0,13.1-0.6,19.5
	c-4.2-0.8-8.5-1-12.6-0.8c-4,0.2-8,0.5-12,1.3c-2-6.9-2.8-14.2-2.6-21.1c5.3-0.1,10.7-0.1,16-0.1c3.9,0,7.8-0.1,11.7-0.2
	C474.6,539.1,474.6,539.5,474.6,540z M460.8,496.9c1.1,0.1,2.2,0.1,3.3,0.1c5,6.4,8.3,12.6,9.2,21c0,0.1,0,0.3,0,0.5
	c-3.9,0.2-7.8,0-11.3-0.2c-4-0.3-7.8-1-11.5-2.4c0.1-0.4,0.2-0.7,0.3-1.1C452.3,509.8,455.4,499.9,460.8,496.9z M459.8,520.7
	c4.3,0.4,9,0.7,13.8,0.4c0.5,5,0.8,10,1,15.1c-3.4,0.1-6.8,0.1-10.1,0.1c-5.8,0-11.6,0-17.5,0.1c0.4-6,1.4-12.1,2.9-18
	C453.1,519.5,456.4,520.3,459.8,520.7z M492.1,512c0.1,0.2,0.2,0.3,0.3,0.5c-0.3,0-0.6,0.1-0.8,0.3c-4.2,3.4-9.8,4.9-15.5,5.5
	c-1.1-7.9-3.4-15.6-8.8-21.1c2.3,0.1,4.5,0.4,6.8,1C482.1,500.3,487.9,504.9,492.1,512z M444.8,499.6c2.9-1.5,5.8-2.4,8.8-3
	c1.9-0.1,3.8,0,5.8,0.2c-4.4,2.4-7,7.2-9,11.8c-0.9,2.1-1.7,4.2-2.3,6.4c-4.4-1.7-10-4-13-7.7C437.9,504.1,441.1,501.5,444.8,499.6z
	 M433.9,508.8c2.3,3.5,6.7,5.6,10.3,7.2c1.1,0.5,2.2,1,3.3,1.4c-1.6,5.9-2.6,12.1-3,18.1c0,0.3,0,0.5,0,0.8c-0.4,0-0.7,0-1.1,0
	c-6.7,0.2-13.4,0-20.1,0.7c0-0.2,0-0.4,0-0.6C423.7,527,428,516.4,433.9,508.8z M430.2,559.5c-3.5-5.7-6.5-13.2-6.9-20.1
	c6.2,0.7,13,0,19.2-0.3c0.6,0,1.2,0,1.7,0c-0.2,7.1,0.8,14.9,2.9,21.6c-0.4,0.1-0.9,0.2-1.3,0.4c-2,0.6-9.1,3.9-9.2,6.8
	C434.3,565.5,432.2,562.7,430.2,559.5z M437.2,568.5c2.9-1.7,5.2-3.9,8.5-5c0.7-0.2,1.4-0.4,2.1-0.6c2,5.8,3.8,11.1,8.1,15.4
	c-2.4-0.4-4.7-1.1-6.8-2C444.4,574.2,440.5,571.7,437.2,568.5z M459.5,578.7c0-0.1-0.1-0.2-0.2-0.3c-4.1-4.5-7.1-10-9.1-16
	c3.4-0.7,7-0.9,10.4-1.1c4.2-0.2,8.7,0,13,0.8c-0.6,4.1-2.1,7.5-4.5,11c-1.4,2.1-3.3,3.6-4.7,5.6
	C462.9,578.8,461.2,578.8,459.5,578.7z M468.1,578.4c1.5-1.7,3-3.3,4.2-5.3c2-3.2,3.3-6.4,3.9-10.2c0-0.1,0-0.2,0-0.3
	c4.6,1.2,8.9,3.3,12.3,6.6C482.9,574.1,475.6,577.3,468.1,578.4z M495.8,560.8c-1.4,2.4-3.2,4.7-5.3,6.7c-3.8-3.8-8.7-6.1-13.9-7.4
	c0.8-7,0.9-14.5,0.6-21.5c1.6,0,3.2-0.1,4.9-0.1c3.4-0.1,6.7-0.3,10.1-0.2c2.8,0,6.6-0.5,9.5,0.2c0.1,0.1,0.2,0.2,0.3,0.2
	C502.1,546.1,499.3,554.8,495.8,560.8z"/>
<g>
	<path class="st4" d="M330,515.1c-0.8-3.2-1.7-5.8-4.9-7.1c-3.6-1.5-7.8-1-11.6-0.9c-4.9,0-9.8-0.3-14.7-0.5c-1.2,0-3.7-0.4-5,0
		c-0.3,0.1-0.6,0.3-0.9,0.5c-0.4,0-0.9,0-1.4,0c-3.3-0.1-6.7-1.1-10-0.5c-5.9,1.1-7.1,7.7-7.4,12.7c-0.6,10-0.4,20.3-0.1,30.3
		c0.2,6.3,0.5,12.8,7.4,14.5c8.3,2.1,17.1,0.1,25.5,0c6.6,0,14.5,0.7,20.2-3.4c5.6-4.1,4.2-15.3,4.1-21.3c0-4.3,0-8.6,0.2-12.9
		C331.9,522.5,331,519.2,330,515.1z M328.5,547.3c-0.2,5.1-0.3,10.6-5.8,12.6c-4.2,1.5-8.5,1.5-12.9,1.5c-8.1,0-16.3,1.5-24.4,0.6
		c-2.6-0.3-5.5-0.7-6.9-3.3c-1.2-2.1-1.1-5.7-1.3-8c-0.2-4.3,0-8.7,0-13c0-4.5-0.1-8.9-0.1-13.4c0.1-4-0.6-11.6,3.5-14
		c3-1.8,7.6-0.2,10.9-0.1c0.2,0.1,0.4,0.2,0.7,0.2c1.4,0,2.8-0.3,4.1-0.4c0.6,0,1.1-0.1,1.7-0.1c0.5,0,1,0,1.5,0
		c4.1,0.2,8.2,0.4,12.3,0.4c3.8,0,9.7-1.1,13,1c2.6,1.7,4,9.8,4.2,12.5c0.2,3.8-0.5,7.9-0.5,11.7
		C328.4,539.3,328.6,543.3,328.5,547.3z"/>
	<path class="st4" d="M310.7,522.6c-4.1-2.4-7-2.2-11.6-1.2c-0.3,0.1-0.5,0.2-0.6,0.4c-8,1.1-11.2,9.8-10.1,18
		c1.1,7.9,9.8,13.1,17.3,11.2c3.2-0.8,7.4-2.2,9.5-5c2.4-3.3,2.9-8.5,2.2-12.3C316.6,529.1,314.8,525,310.7,522.6z M306.9,547.5
		c-6.4,2.1-14.2-0.7-15.6-7.9c-0.6-3-0.2-6.5,0.6-9.4c1.2-4,3.7-5.7,6.9-6.6c0.2,0.1,0.4,0.2,0.6,0.2c6.5,0,12,0.3,14.3,7.5
		C316,538.3,314.4,545.1,306.9,547.5z"/>
	<path class="st4" d="M320.6,513.4c-0.3-0.2-0.6-0.3-0.9-0.2c-0.4-0.5-1-1-1.7-1c-1,0-1.5,0.9-2,1.6c-1.1,1.6-1.9,4.3-0.4,5.9
		c1.5,1.6,4.6,1.1,5.8-0.7C322.4,517.4,322.3,514.7,320.6,513.4z M318.9,517.4c-0.2,0.3-1,0.7-1.4,0.4c-0.5-0.5,0.3-2.1,0.5-2.6
		c0.1-0.3,0.2-0.7,0.4-0.9c0,0,0.1,0,0.3,0c-0.1,0.3-0.1,0.6,0.1,0.9C319.2,515.7,319.2,516.8,318.9,517.4z"/>
</g>
<g>
	<path class="st4" d="M110.4,384.3c-0.1-0.9,0.1-2.6-0.8-3.3c-1.3-1.1-4-0.7-6.1-0.5c0.7-8.5,0-16.9,0-25.4c0-0.1,0-0.3,0-0.4
		c0.2-0.2,0.4-0.5,0.1-0.8c0,0-0.1-0.1-0.1-0.1c0-3.1-0.1-6.3-0.3-9.4c-0.1-2.3-0.1-4.6-0.3-6.9c-0.1-0.8,0-1.5-0.6-2.1
		c-1.1-1.2-4.5-1.2-5.9-1.3c-2.4-0.2-6.6-0.9-8.8,0c-2.3,1-4.2,4.6-5.8,6.5c-0.6,0.7-1.3,1.4-2,2.1c-0.1,0-0.2,0.1-0.2,0.2
		c-1.3,1.3-2.7,2.6-3.4,4c-0.2,0.2-0.2,0.5,0,0.7c0.9,1.2,2,2.2,3,3.4c0.8,1,1.5,2,2.6,2.8c0.2,0.2,0.5,0.2,0.7,0.1
		c1.8,0.7,2.6-0.2,3.9-1.6c1.4-1.4,2.6-2.9,4.1-4.2c-0.1,5.1-0.5,10.2-0.4,15.3c0.1,5.8,0.6,11.7,0.4,17.5c-0.6,0.4-3.4,0-4.1,0.2
		c-0.7,0.2-1.1,0.2-1.7,0.9c-0.7,0.8-0.5,2.6-0.6,3.6c-0.1,1.7-0.9,4.3-0.3,5.9c0.6,1.7,2.5,1.9,4.2,2.3c1.9,0.4,3.9,0.6,5.8,0.7
		c0,0,0,0,0.1,0c2.2,0.1,4.5,0,6.7-0.1c4.4-0.2,11.9,0.7,10.9-5.5C111,387.3,110.6,385.8,110.4,384.3z M108.4,391.1
		c-4.1-5.3-9.1-9.6-13.9-14.1c0.1,0,0.2-0.1,0.1-0.2c-0.1-0.1-0.1-0.3-0.2-0.4c-0.1-0.1-0.2,0-0.2,0.1c0-0.1-1.2-1-1.7-1.4
		c0-0.4,0-0.8,0-1.3c2.5,2.5,5,4.8,7.5,7.3c0.2,0.2,0.4,0.4,0.6,0.6c0.2,0.2,0.4,0.4,0.5,0.5c0.1,0.2,0.3,0.4,0.5,0.5
		c0.2,0.2,0.4,0.4,0.6,0.6c0.1,0.1,0.3,0.1,0.4,0.1c0.6,0.6,1.3,1.1,1.9,1.7c1.6,1.5,3.4,3.2,4.6,5.1
		C108.8,390.7,108.6,391,108.4,391.1z M106.1,391.6c-2.1-2.5-4.1-5-6.5-7.2c-2.4-2.3-5-4.6-7.2-7.2c0-0.2,0-0.5,0-0.7
		c2.6,2.7,5.5,5.3,8.2,7.9c1.4,1.3,2.8,2.7,4.1,4.1c0.9,1,1.6,2.1,2.5,3.1C107,391.5,106.6,391.5,106.1,391.6z M98.8,392.1
		c-1.4-1.6-3-3.2-4.5-4.8c-1.4-1.5-2.6-3.1-4.1-4.5c0.1,0,0.1,0,0.2,0c0.3,0.3,0.7,0.4,1.1,0.2c2.5,3.1,5.1,6.3,7.9,9.1
		C99.3,392.2,99.1,392.2,98.8,392.1C98.8,392.2,98.8,392.1,98.8,392.1z M89.2,346.2c-1-1-2-1.9-3-2.9c-0.8-0.8-1.5-1.7-2.4-2.5
		c0.2-0.3,0.5-0.5,0.7-0.8c0.8,1,1.7,1.9,2.5,2.9c0.9,1,1.8,1.9,2.7,2.9C89.5,345.9,89.3,346,89.2,346.2z M85.6,338.8
		c1.8,2.2,4,4.1,6,6.2c-0.2-0.1-0.5-0.1-0.8,0c-0.2,0.1-0.3,0.2-0.4,0.3c-1.9-1.9-3.9-3.6-5.6-5.7C85.1,339.4,85.4,339.1,85.6,338.8
		z M86.8,337.7c0.1-0.1,0.1-0.1,0.2-0.2c0.1,0.1,0.1,0.1,0.2,0.2c0,0.1,0.1,0.2,0.1,0.3c0.3,0.8,2.2,2.3,2.8,2.9
		c1.6,1.7,3.3,3.4,4.8,5.2c2.1,2.5,4.2,5.2,6.6,7.4c0,0.5,0,0.9,0.1,1.4c-2.5-2.4-4.6-5.8-6.7-8.3c-2.6-3.1-5.7-5.6-8.5-8.4
		C86.5,338,86.7,337.8,86.8,337.7z M106,382.8c0.9,0.7,1.7,1.5,2.4,2.4c0,0.3,0.1,0.6,0.1,1c-1.3-1.3-2.7-2.4-4.2-3.5
		C104.9,382.7,105.4,382.7,106,382.8z M92.3,373.3c0-0.4,0-0.8-0.1-1.2c2.9,3,5.8,6.1,8.8,9.1c0,0,0,0,0,0c-0.1-0.1-0.3-0.2-0.4-0.3
		C97.9,378.4,95,375.9,92.3,373.3z M92.3,371.6c0-0.5,0-1-0.1-1.5c3.1,3.2,6.1,6.6,9.2,9.8c0,0.2,0,0.4,0,0.6c0,0,0,0.1,0,0.1
		C98.5,377.5,95.4,374.6,92.3,371.6z M91.9,354.6c1.8,1.6,3.4,3.3,4.9,5.1c1.6,1.9,3.4,3.8,4.9,5.9c0,0.4,0,0.7,0,1.1
		c-1.5-1.8-3.1-3.5-4.6-5.3c-1.7-1.9-3.7-3.8-5.2-5.9C91.9,355.2,91.9,354.9,91.9,354.6z M101.7,363.8c-1.2-1.5-2.8-2.9-4-4.3
		c-1.8-2-3.6-3.9-5.7-5.5c0-0.5,0-1.1,0.1-1.6c3.3,3.6,6.8,7,9.7,11C101.7,363.5,101.7,363.7,101.7,363.8z M91.9,356.4
		c1.3,1.7,2.8,3.2,4.1,4.8c0.8,1,1.6,1.9,2.4,2.9c-2.1-2.3-4.4-4.5-6.5-6.8C91.9,357,91.9,356.7,91.9,356.4z M101.2,369.2
		c0,0.1,0.1,0.3,0.2,0.3c0.1,0,0.1,0.1,0.2,0.1c0.1,0,0.1,0.1,0.2,0.1c0,0.2,0,0.4,0,0.6c-3.1-3.8-6.9-7.2-9.9-11.1c0-0.3,0-0.7,0-1
		C95,361.8,98.5,365.2,101.2,369.2z M91.9,360c3,4.1,6.7,7.8,9.8,11.7c0,0.3,0,0.6,0,1c-3.3-3.5-6.6-7.1-9.8-10.7
		C91.9,361.3,91.9,360.7,91.9,360z M101.6,375.4c-1.2-1.3-2.5-2.4-3.8-3.6c-1.9-1.9-3.9-3.8-5.9-5.6c0-0.6,0-1.1-0.1-1.7
		c3.4,3.4,6.7,7,9.7,10.8C101.6,375.3,101.6,375.3,101.6,375.4z M101.6,376.5c0,0,0,0.1,0,0.1c-0.8-0.9-1.6-1.8-2.5-2.7
		C100,374.7,100.8,375.6,101.6,376.5z M97.9,357.2c-1.1-1.2-2.3-2.4-3.5-3.6c-0.6-0.6-1.5-1.7-2.4-2.2c0-1,0.1-1.9,0.1-2.9
		c1.2,1.7,2.7,3.2,3.9,4.8c1.8,2.4,3.9,4.6,5.6,7.1c0,0.4,0,0.7,0,1.1C100.5,359.9,99.1,358.6,97.9,357.2z M101.6,358.2
		c-2.9-3.9-6.6-7.2-9.4-11.1c0-0.3,0-0.7,0.1-1c0-0.1,0-0.3-0.1-0.4c0.7,0.8,1.4,1.5,2,2.3c1.6,2,3.2,3.9,4.8,5.8
		c0.8,0.9,1.6,2.1,2.5,2.9C101.6,357.2,101.6,357.7,101.6,358.2z M101.3,373.6c0.1,0.1,0.2,0.1,0.3,0.1c0,0.1,0,0.2,0,0.4
		c-3-3.6-6.4-6.9-9.7-10.2c0-0.1,0-0.2,0-0.3c0-0.2,0-0.5,0-0.7C95,366.5,98.2,370,101.3,373.6z M101.5,378.8
		c-3.1-3.1-6.2-6.4-9.3-9.5c0-0.8-0.1-1.5-0.1-2.3c3.3,3.5,6.3,7.2,9.5,10.7C101.5,378.2,101.5,378.5,101.5,378.8z M100.6,392.1
		c-2.1-2.2-4.2-4.5-6.3-6.7c0.5,0.4,0.9,0.8,1.3,1.2c1.8,1.8,3.6,3.7,5.5,5.5C101,392,100.8,392.1,100.6,392.1
		C100.6,392.1,100.6,392.1,100.6,392.1z M102.2,391.7c-1.6-1.7-3.4-3.3-5.1-4.9c-0.9-0.8-1.7-1.6-2.6-2.4c-0.7-0.6-1.6-1.3-2.2-2.1
		c0-0.1,0-0.1,0.1-0.2c0-0.4,0-0.8,0.1-1.3c0.3,0.3,0.5,0.6,0.8,0.9c0.3,0.3,0.5,0.7,0.8,1.1c0,0,0.1,0,0.1,0
		c-0.1-0.1-0.1-0.2-0.2-0.3c2.9,3.2,6.1,6,8.7,9.4c0,0-0.1,0-0.1,0C102.3,391.9,102.3,391.8,102.2,391.7z M103.5,391.6
		c-1.5-2.3-3.8-4.2-5.7-6.2c-1.8-1.9-3.7-3.8-5.4-5.7c0-0.6,0-1.1,0-1.7c0.6,0.7,1.4,1.6,1.5,1.7c1.4,1.5,2.8,3,4.2,4.5
		c2.3,2.3,4.3,5.1,6.6,7.5c-0.4,0-0.8,0.1-1.2,0.1C103.6,391.8,103.5,391.7,103.5,391.6z M108.7,388.4c-1-1.2-2.2-2.3-3.3-3.3
		c-0.9-0.8-1.8-1.5-2.7-2.2c0.2,0,0.5,0,0.7,0c0.9,0.7,1.9,1.4,2.7,2.2c0.9,0.9,1.7,1.8,2.6,2.8c0.1,0.3,0.1,0.6,0.2,0.9
		C108.9,388.6,108.8,388.5,108.7,388.4z M108,383.8c-0.3-0.3-0.6-0.6-1-0.8C107.5,383.1,107.8,383.4,108,383.8z M87.6,337.1
		c1-0.6,2.2-0.9,3.5-1.1c0.7,1,1.6,1.9,2.4,2.8c1.1,1.3,2.1,2.6,3.2,3.9c1.4,1.7,2.8,3.9,4.5,5.4c0.1,1.1,0.1,2.1,0.2,3.2
		C97,346.5,92.5,341.5,87.6,337.1z M93.6,336c1.1,1.3,2.2,2.7,3.3,3.9c1.3,1.5,2.5,3.4,4.1,4.7c0,0.6,0.1,1.3,0.1,1.9
		c-1.6-1.6-3-3.5-4.4-5.1c-1.7-1.9-3.3-3.8-5.2-5.5C92.2,336,92.9,336,93.6,336z M95.1,336.1C95.1,336.2,95.1,336.2,95.1,336.1
		c0.1,0.2,0.2,0.2,0.3,0.2c2.1,1.8,3.4,4.5,5.5,6.2c0,0.2,0,0.4,0,0.7c-2.3-2.2-4.2-4.8-6.4-7.1C94.7,336.1,94.9,336.1,95.1,336.1z
		 M100.6,337.9c0.1,0.2,0.1,0.6,0.1,1c-0.4-0.4-0.8-0.8-1.3-1.2c-0.3-0.3-0.7-0.8-1.1-1.2C99.3,336.6,100.1,336.8,100.6,337.9z
		 M97.7,336.4c0.7,0.6,1.2,1.3,1.8,2c0.4,0.5,0.9,1,1.3,1.4c0,0.4,0,0.8,0,1.1c-0.7-0.7-1.4-1.5-2.1-2.2c-0.8-0.8-1.5-1.7-2.3-2.5
		c0.2,0,0.4,0,0.6,0.1C97.2,336.4,97.4,336.4,97.7,336.4z M84.5,351.3c-1.8-1.8-3.4-3.8-5.2-5.6c0.2-0.2,0.3-0.3,0.5-0.5
		c0.7,0.8,1.5,1.5,2.2,2.3c1,1.1,1.9,2.3,3,3.3C84.8,351,84.7,351.1,84.5,351.3z M83.7,352c-0.2-0.2-0.4-0.4-0.5-0.6
		c-0.5-0.6-1-1.1-1.5-1.7c-0.5-0.5-0.9-1-1.4-1.5c0-0.1,0-0.1-0.1-0.2c0,0,0,0,0,0c-0.5-0.5-1-1.2-1.6-1.6c0,0-0.1,0-0.1,0
		c0.1-0.1,0.2-0.2,0.3-0.3c1,1.1,2,2.1,2.9,3.2c0.7,0.8,1.3,1.7,2.1,2.5C83.8,351.9,83.8,351.9,83.7,352z M81.2,351.5
		c-0.5-0.5-0.8-1-1.3-1.5c-0.8-0.9-1.6-1.7-2.5-2.6c0.2-0.2,0.4-0.3,0.6-0.5c0,0,0,0.1,0.1,0.1c1.1,1.4,2.3,2.7,3.5,4
		c0.3,0.4,0.7,0.9,1.1,1.4c-0.1,0-0.2,0.1-0.4,0.1C82.1,352.1,81.6,351.9,81.2,351.5z M85.5,350.2c-0.9-0.9-1.8-1.9-2.7-2.8
		c-0.8-0.8-1.8-1.6-2.6-2.6c0.2-0.2,0.3-0.4,0.5-0.5c0.7,0.7,1.3,1.5,2,2.2c0.9,1,1.7,2.3,2.9,3c0.3,0.2,0.8-0.3,0.4-0.6
		c-1.1-0.9-2-1.9-2.9-2.9c-0.7-0.7-1.4-1.4-2.1-2.2c0.1-0.1,0.2-0.2,0.3-0.3c0.7,0.9,1.6,1.8,2.4,2.6c0.6,0.6,1.2,1.3,1.8,1.9
		c0.3,0.3,0.6,0.6,1,0.8C86.1,349.4,85.8,349.8,85.5,350.2z M86.9,348.4C86.8,348.4,86.8,348.4,86.9,348.4c-1.1-0.7-1.9-1.7-2.8-2.6
		c-0.8-0.8-1.8-1.6-2.5-2.5c0.3-0.3,0.6-0.6,0.8-0.9c0.8,0.9,1.6,1.8,2.4,2.7c0.8,1,1.6,1.9,2.6,2.7c0,0,0,0,0,0
		C87.2,348,87,348.2,86.9,348.4z M88,347.2c-2-1.4-3.5-3.5-5.3-5.2c0.2-0.3,0.5-0.5,0.7-0.8c1.6,1.9,3.3,3.8,5.1,5.4
		C88.4,346.8,88.2,347,88,347.2z M91.3,392.3c-1.5-1.5-4.1-4.3-5.3-5.7c0-0.3,0-0.6,0.1-0.9c0-0.3,0-0.5,0.1-0.8
		c0.3,0.3,0.5,0.6,0.9,0.8c0,0,0,0,0.1,0c0.8,1.1,1.6,2.4,2.3,3.4c0.7,1,1.5,2.1,2.2,3.1C91.5,392.3,91.4,392.3,91.3,392.3z
		 M89,391.9c-1.1-1.2-2.2-2.3-3.2-3.6c0-0.4,0-0.8,0.1-1.3c1.3,1.8,2.8,3.4,4.3,5.1C89.8,392.1,89.4,392,89,391.9z M85.8,389.5
		c0-0.1,0-0.2,0-0.3c0.5,0.8,1.1,1.6,1.8,2.3c-0.4-0.1-0.8-0.3-1.1-0.5C85.4,390.5,85.8,391,85.8,389.5z M93,392.4
		c-1.5-1.7-2.8-3.6-4.2-5.4c-0.7-1-1.5-2.2-2.5-3.1c0-0.1,0.1-0.1,0.1-0.2c1.1,1.3,2.3,2.4,3.4,3.7c1.4,1.6,2.7,3.3,4.1,4.9
		c0.4,0.4,1-0.2,0.6-0.6c-1.5-1.5-2.8-3.2-4.2-4.7c-1.2-1.2-2.4-2.4-3.6-3.6c0.5-0.5,1.4-0.5,2.9-0.5c0,0,0,0.1,0.1,0.1
		c1.5,1.5,2.8,3.2,4.2,4.8c1.3,1.5,2.6,3,3.9,4.5c-0.3,0-0.5,0-0.8,0c-1-1.3-2.3-2.4-3.4-3.6c-1.6-1.9-3.5-3.6-5.1-5.6
		c-0.1-0.2-0.4,0-0.3,0.2c1.2,1.7,2.6,3.1,4,4.7c1.2,1.4,2.6,2.9,3.8,4.4C95.1,392.4,94,392.4,93,392.4z"/>
	<path class="st4" d="M144.3,339.3c-2.9-2.2-6.7-2.8-10.4-2.6c-3.6-0.4-7.4,0.3-10.6,2.1c-4.4,2.6-6.9,8.1-8.6,12.7
		c-4.2,11.2-2.6,26.3,4.4,36.1c6.3,8.7,19.7,6.7,27.4,0.8c9.5-7.2,8.1-23.2,5.1-33.3C150.3,350.3,148.6,342.6,144.3,339.3z
		 M150.1,378.3c-1-1.6-2-3.2-3-4.9c-1.2-2-2.8-4.1-3.6-6.4c0-0.6,0.1-1.2,0.1-1.7c1.2,1.9,2.3,3.9,3.5,5.8c1.1,1.9,2.1,4,3.4,5.7
		C150.3,377.4,150.2,377.8,150.1,378.3z M148.1,382.9c-2.1-2.9-4.2-5.9-6.2-8.8c0.2-0.4,0.3-0.7,0.5-1.1c2.3,3,4.2,6.3,6,9.5
		C148.2,382.6,148.2,382.8,148.1,382.9z M147.1,384.2c-2-2.9-4-5.7-6.1-8.5c0.2-0.3,0.4-0.7,0.6-1.1c1,1.6,2.2,3.2,3.2,4.8
		c0.9,1.4,1.7,2.9,2.7,4.3C147.3,383.9,147.2,384.1,147.1,384.2z M146,385.4c-1.9-2.8-4-5.6-5.9-8.4c0.2-0.2,0.4-0.5,0.6-0.8
		c2,2.9,3.7,5.9,5.8,8.7C146.3,385.1,146.1,385.2,146,385.4z M143.1,387.6c-1.3-3-3.5-5.7-5.6-8.4c0.4-0.2,0.7-0.5,1.1-0.7
		c1.6,2.7,3.4,5.3,5.1,7.8c0,0.2,0.2,0.4,0.4,0.4c0,0,0.1,0,0.1,0c0.3,0,0.6-0.4,0.4-0.7c-1.9-2.6-3.9-5.2-5.6-7.9
		c0.3-0.2,0.5-0.5,0.7-0.7c1,1.5,2,2.9,2.9,4.4c0.9,1.4,1.6,3,2.7,4.2C144.6,386.6,143.9,387.1,143.1,387.6z M138.3,389.7
		c-0.9-1.7-2.1-3.1-3.1-4.7c-1-1.5-1.9-2.9-2.8-4.4c0.5,0.1,0.9,0.1,1.4,0c1.6,2.8,3.2,5.5,5.1,8.1c0.3,0.4,1,0,0.7-0.4
		c-1.7-2.6-3.5-5.1-5.2-7.8c0.4-0.1,0.8-0.2,1.3-0.4c0.1,0.2,0.3,0.5,0.4,0.7c0.6,1,1.2,2,1.9,2.9c0.9,1.4,1.7,3.1,2.9,4.3
		c0.4,0.4,0.9-0.2,0.6-0.6c0,0-0.1-0.1-0.1-0.1c0,0,0,0,0,0c-1.2-1.1-2-2.8-3-4.1c-0.8-1.1-1.6-2.1-2.3-3.2c0.3-0.1,0.6-0.3,0.9-0.4
		c1.9,2.7,3.9,5.5,5.3,8.5C141,388.7,139.7,389.2,138.3,389.7z M135.7,390.3c-1.4-3.6-3.2-6.9-5-10.2c0.3,0.1,0.5,0.2,0.8,0.3
		c1.8,3.2,3.6,6.5,5.8,9.5C136.8,390,136.3,390.2,135.7,390.3z M117,353.4c2.2,3.7,4.5,7.3,6.4,11.2c0,1,0.1,1.9,0.2,2.7
		c0,0.1,0,0.2,0,0.3c-0.7-1.4-1.4-2.8-2.2-4.2c-0.8-1.6-1.7-3.2-2.7-4.8c-0.3-0.5-1.5-2.5-2-3.1c0-0.3-0.1-0.6-0.2-0.9c0,0,0,0,0,0
		C116.7,354.2,116.8,353.8,117,353.4z M117.5,351.7c2.1,3.3,4.3,6.9,5.9,10.5c0,0,0,0,0,0.1c-0.9-1.5-2-3-2.8-4.3
		c-0.8-1.4-2-4-3.2-5.1c-0.1-0.1-0.1-0.2-0.2-0.3C117.3,352.3,117.4,352,117.5,351.7z M123.5,360.5c-0.1-0.2-0.2-0.5-0.4-0.7
		c0.2,0.1,0.3,0.1,0.5-0.1C123.6,360,123.5,360.3,123.5,360.5z M117.7,351.1c0.2-0.4,0.3-0.8,0.5-1.2c0.3,1,1,2,1.4,2.9
		c0.8,1.7,1.6,3.4,2.4,5.1C120.7,355.6,119.2,353.3,117.7,351.1z M126,368c-0.7-4.6-0.9-13,2.9-17.2c5.5-3.8,9.8,1.5,11.3,6.9
		c1.4,5.1,1.3,12.2-1.6,16.7c-2.6,3.9-6.9,4.6-10,0.9C126.9,373.3,126.5,370.7,126,368z M121.9,343.6c0.1,0.3,0.3,0.5,0.5,0.8
		c0,0.1,0.1,0.2,0.1,0.3c0,0.1,0.1,0.1,0.2,0.1c0.5,0.7,1,1.4,1.4,2.1c0.8,1.2,1.5,2.7,2.6,3.7c0.1,0.1,0.2,0.1,0.4,0.1
		c-0.3,0.4-0.5,0.7-0.8,1.1c-1.7-2.4-3.3-5-4.7-7.6C121.6,344,121.7,343.8,121.9,343.6z M125.2,341c0.1,0.1,0.2,0,0.2-0.1
		c0-0.1-0.1-0.1-0.1-0.2c0.3-0.2,0.6-0.4,1-0.6c0.6,1.2,1.4,2.3,2.1,3.4c1,1.4,2,2.9,3.1,4.2c-0.2,0.1-0.4,0.1-0.5,0.2c0,0,0,0,0,0
		c-1.3-1.4-2.4-2.9-3.5-4.4c-0.4-0.5-1.8-1.8-2.3-2.7C125.1,340.9,125.1,341,125.2,341z M128,339.8c2,2.2,3.1,5.1,4.8,7.6
		c-0.1,0-0.3,0.1-0.4,0.1c0-0.1-0.1-0.2-0.1-0.2c-1.3-1.3-2.4-2.8-3.5-4.3c-0.7-1-1.6-2-2.2-3.1c0.3-0.1,0.6-0.3,0.9-0.4
		C127.6,339.7,127.8,339.8,128,339.8z M132.2,339.3c0.4,1.1,0.9,2.2,1.5,3.4c-0.6-0.8-1.2-1.6-1.8-2.4c-0.1-0.1-0.2-0.2-0.3-0.3
		c-0.1-0.2-0.2-0.4-0.4-0.6C131.5,339.3,131.8,339.3,132.2,339.3z M133.1,339.2C133.1,339.2,133.1,339.2,133.1,339.2
		c0.1,0,0,0.1,0,0.1C133.1,339.3,133.1,339.3,133.1,339.2z M151.1,371.6c-1.2-2-2.6-3.9-3.9-5.9c-1.6-2.6-3-5.3-4.7-7.8
		c-0.3-1.1-0.6-2.1-1-3c3.2,5.1,6,10.5,9.6,15.3C151.2,370.6,151.1,371.1,151.1,371.6z M132.4,342.6c1.1,1.7,2.1,3.5,3.2,5.2
		c-0.6-0.2-1.1-0.4-1.7-0.4c-1.6-2.5-3.1-5.5-5.2-7.6c0.5-0.1,1-0.2,1.6-0.3C130.7,340.6,131.8,341.7,132.4,342.6z M145.8,377
		c-1.1-1.6-2.1-3.1-3.3-4.5c0.1-0.4,0.2-0.8,0.3-1.2c0.7,1.4,1.8,2.8,2.5,4c1.2,2,2.3,4.1,3.7,5.9c0,0.1-0.1,0.2-0.1,0.3
		C148,379.9,146.8,378.4,145.8,377z M149.7,379.6c-0.1,0.1-0.1,0.3-0.2,0.4c-1.1-1.6-2.1-3.2-3.1-4.9c-0.6-1-1.7-2.3-2.4-3.5
		c0.1,0.1,0.2,0.1,0.2,0.2c0.2,0.1,0.4-0.2,0.3-0.3c-0.1-0.1-0.1-0.1-0.2-0.2c-0.1-0.1-0.3,0-0.2,0.1c-0.2-0.7-0.5-1.2-0.9-1.8
		c0.1-0.6,0.2-1.2,0.2-1.9c0.6,1.8,1.8,3.5,2.7,5.1c1.2,2.2,2.4,4.4,3.6,6.6C149.7,379.5,149.7,379.6,149.7,379.6z M143.5,364.3
		c0-1.3-0.2-2.5-0.4-3.7c0,0.1,0.1,0.1,0.1,0.2c0,0,0.1,0.1,0.1,0.1c2.5,4.2,5.1,8.4,7.4,12.7c0,0.1,0.1,0.1,0.1,0.2
		c-0.1,0.6-0.1,1.2-0.2,1.8C148.1,371.9,146,368,143.5,364.3z M140.7,340.5c2.4,3.7,4.8,7.4,6.9,11.3c0.1,0.2,0.3,0.3,0.4,0.3
		c0.5,1.5,1,3,1.4,4.5c-1.2-2.5-2.6-4.9-4-7.1c-1.2-1.9-2.7-3.7-4.1-5.6c-0.3-0.4-1.1-1.3-1.8-2c0.1,0,0.2-0.1,0.1-0.2
		c-0.4-0.6-0.9-1.2-1.3-1.8c-0.2-0.3-0.6,0-0.5,0.3c1.8,3.7,4.8,6.9,6.9,10.4c2.1,3.6,3.9,7.5,5.7,11.3c0.1,0.7,0.2,1.4,0.3,2.1
		c-2.3-4.2-4.5-8.4-7-12.5c-1.8-2.8-3.7-5.5-5.5-8.3c-0.1-0.1-0.3-0.5-0.6-0.9c-0.3-1.1-1.3-2.2-1.9-3c0,0,0,0,0,0
		C137.5,339.4,139.2,339.8,140.7,340.5z M145.4,345.5c0.3,0.6,0.5,1.3,0.8,1.9c-1.2-2-2.5-4-3.9-5.9
		C143.7,342.5,144.7,343.8,145.4,345.5z M135.3,339.2c-0.1,0.1-0.2,0.3-0.1,0.5c2.7,5.3,6.4,10,9.3,15.2c2,3.6,3.7,8.4,6.6,11.4
		c0,0.4,0,0.8,0.1,1.2c-0.7-1.3-1.6-2.5-2.2-3.5c-1.9-3.2-4-6.3-6-9.4c-1.9-2.9-3.8-5.8-5.7-8.7c-0.9-1.4-1.7-2.9-2.6-4.4
		c-0.4-0.6-1-2-1.3-2.2C133.9,339.2,134.6,339.2,135.3,339.2z M123.2,342.3c0.6,1.2,1.5,2.4,2.3,3.5c0.7,0.9,1.6,2.6,2.7,3
		c0.5,0.2,0.9-0.6,0.4-0.9c-0.5-0.3-0.9-1-1.3-1.4c-0.5-0.6-1-1.3-1.5-2c-0.4-0.6-0.8-1.1-1.2-1.7c-0.2-0.4-0.4-0.8-0.6-1.1
		c0.2-0.2,0.4-0.3,0.6-0.5c0.3,0.7,1,1.3,1.3,1.7c1.3,1.8,2.5,3.7,4,5.5c-1,0.4-1.8,1-2.5,1.8c0-0.1,0-0.2-0.1-0.3
		c-1-1.1-1.8-2.5-2.6-3.7c-0.7-1.1-1.5-2.1-2.2-3.2C122.7,342.7,122.9,342.5,123.2,342.3z M121,344.8c0.6,1.3,1.3,2.6,2,3.8
		c0.8,1.4,1.6,3,2.6,4.1c0,0,0,0,0,0c-1,1.9-1.6,4.3-2,6.6c-1.5-3.4-3.9-6.4-5.2-9.8c0.2-0.6,0.5-1.1,0.8-1.6c0.6,1.4,1.3,2.7,2,4
		c0.6,1.3,1.6,2.6,2,4c0,0.1,0,0.2,0.1,0.3c0,0,0.1,0.1,0.1,0.1c0.2,0.2,0.6,0.1,0.6-0.3c-0.1-1.3-1.2-2.5-1.8-3.6
		c-0.9-1.7-1.9-3.3-2.8-5c0.2-0.3,0.4-0.7,0.6-1c1.3,2.6,3,5.1,4.1,7.7c0.2,0.5,1,0.1,0.7-0.4c-1.3-2.7-3.1-5.2-4.6-7.7
		c0.1-0.1,0.1-0.3,0.2-0.4C120.7,345.3,120.8,345,121,344.8z M131.8,390.8c-3.2-4.7-5.6-10-8.3-14.9c-1.6-2.9-3.1-5.8-4.7-8.7
		c-0.7-1.4-1.4-2.9-2.3-4.2c-0.2-0.3-0.6-0.8-0.9-1.2c0-0.1-0.1-0.2-0.1-0.3c0-0.8,0.1-1.6,0.2-2.4c0.8,1.7,2,3.4,2.7,4.9
		c1.6,3.3,3.2,6.5,4.9,9.8c3,5.7,6,11.6,9.5,17C132.4,390.7,132.1,390.8,131.8,390.8z M128.3,390.6c-2.3-3.4-4.3-7.2-6.4-10.7
		c-1.1-1.9-2.3-3.9-3.5-5.8c-0.7-1.2-1.8-3.5-2.9-4.9c-0.1-0.9-0.1-1.8-0.1-2.7c0.4,0.6,0.7,1.2,1,1.8c1,2.5,2.6,4.9,3.9,7.2
		c2.6,4.9,5,10.1,8.1,14.8c0.4,0.7,1.4,0,1-0.6c-5.1-7.9-8.6-16.8-14-24.4c0-0.8,0-1.7,0-2.5c2.5,5.3,5.5,10.5,8.2,15.7
		c2.1,4,3.9,8.6,6.7,12.2C129.7,390.8,129,390.7,128.3,390.6z M126.6,390.1c-3.9-5.8-7.5-11.9-10.8-18.1c-0.1-0.5-0.1-1-0.2-1.5
		c2.1,3.4,4.1,6.9,6.1,10.4c1.6,3,3.1,6.3,5.1,9.2C126.7,390.2,126.7,390.2,126.6,390.1z M116.1,374c1.4,2.8,2.9,5.6,4.4,8.3
		c-1.4-2.2-2.8-4.5-4.1-6.8C116.3,375,116.2,374.5,116.1,374z M118.3,380.9c-0.5-1-0.9-2-1.2-3.1c1.9,3.4,3.9,6.7,5.8,10
		C120.9,386,119.5,383.4,118.3,380.9z M123.7,388.6c0.2-0.1,0.4-0.2,0.4-0.4c0.3,0.4,0.5,0.8,0.8,1.2c0,0,0,0,0,0
		C124.4,389.1,124,388.8,123.7,388.6z M134,390.6c-0.1-0.5-0.9-0.7-1-0.1c0.7-2.6-1.5-4.6-2.9-6.9c-2-3.1-3.6-6.4-5.4-9.7
		c-1.6-3-3.2-6-4.7-9c-0.7-1.4-1.4-2.8-2.1-4.2c-0.2-0.5-1.2-2.5-1.8-3.4c0.1-0.6,0.2-1.2,0.4-1.7c1.2,2.9,2.9,5.6,4.3,8.3
		c1.4,2.9,2.6,5.7,4.2,8.5c1,2.7,2.4,5.4,4.4,7c0.6,1.1,1.3,2.2,1.8,3.3c1.3,2.6,2.2,5.4,3.5,7.9c-0.1,0-0.1,0-0.2,0
		C134.3,390.5,134.1,390.5,134,390.6z"/>
	<path class="st4" d="M189.6,339.3c-2.9-2.2-6.7-2.8-10.4-2.6c-3.6-0.4-7.4,0.3-10.6,2.1c-4.4,2.6-6.9,8.1-8.6,12.7
		c-4.2,11.2-2.6,26.3,4.4,36.1c6.3,8.7,19.7,6.7,27.4,0.8c9.5-7.2,8.1-23.2,5.1-33.3C195.5,350.3,193.8,342.6,189.6,339.3z
		 M195.3,378.5c-1-1.7-2.1-3.4-3.1-5.1c-1.1-1.9-2.6-3.8-3.4-5.9c0.1-0.6,0.1-1.2,0.1-1.9c1.1,1.8,2.2,3.6,3.2,5.5
		c1.1,2,2.2,4.2,3.6,6C195.5,377.6,195.4,378.1,195.3,378.5z M194,381.7c-1-1.6-2.2-3.2-3.2-4.7c-1-1.5-2-3-3.2-4.4
		c0.1-0.4,0.2-0.7,0.3-1.1c0.7,1.3,1.7,2.6,2.4,3.7c1.2,2,2.3,4.1,3.7,6c0,0.1,0,0.1,0.1,0.2C194.1,381.5,194.1,381.6,194,381.7z
		 M193.2,383.1c-2.1-2.9-4.2-5.8-6.2-8.8c0.2-0.4,0.3-0.7,0.5-1.1c2.2,3,4.1,6.3,6,9.5C193.4,382.8,193.3,382.9,193.2,383.1z
		 M192.2,384.4c-2-2.9-4-5.7-6.1-8.5c0.2-0.3,0.4-0.7,0.6-1c1,1.5,2.1,3,3.1,4.6c0.9,1.5,1.8,3.1,2.8,4.4
		C192.5,384.1,192.3,384.2,192.2,384.4z M183.3,389.7c-0.9-1.7-2.1-3.2-3.2-4.8c-1-1.5-1.9-3-2.9-4.4c0.5,0.1,1,0.1,1.5,0.1
		c1.6,2.8,3.2,5.5,5.1,8.1c0.3,0.4,1,0,0.7-0.4c-1.7-2.6-3.5-5.1-5.1-7.7c0.4-0.1,0.9-0.2,1.3-0.3c0.1,0.2,0.3,0.4,0.4,0.6
		c0.6,1,1.2,2,1.9,2.9c0.9,1.4,1.7,3.1,2.9,4.3c0.4,0.4,0.9-0.2,0.6-0.6c0,0-0.1-0.1-0.1-0.1c0,0,0,0,0,0c-1.2-1.1-2-2.8-3-4.1
		c-0.8-1-1.6-2.1-2.3-3.2c0.3-0.1,0.6-0.3,1-0.4c1.9,2.7,3.9,5.5,5.3,8.5c0,0,0,0,0,0C186.1,388.8,184.7,389.3,183.3,389.7z
		 M180.7,390.3c-1.4-3.6-3.2-7-5-10.3c0.3,0.1,0.6,0.3,0.9,0.3c1.8,3.3,3.7,6.6,5.9,9.6C181.9,390.1,181.3,390.2,180.7,390.3z
		 M176.8,390.8c-3.2-4.7-5.6-10-8.3-15c-1.6-2.9-3.1-5.8-4.7-8.7c-0.7-1.4-1.4-2.9-2.3-4.2c-0.2-0.3-0.5-0.7-0.7-1.1
		c0-0.8,0.1-1.6,0.2-2.4c0.8,1.6,1.8,3.1,2.5,4.5c1.6,3.3,3.2,6.5,4.9,9.8c3,5.7,6,11.6,9.5,17C177.5,390.8,177.1,390.8,176.8,390.8
		z M171.6,390c-3.8-5.6-7.2-11.4-10.4-17.4c-0.1-0.5-0.1-1.1-0.2-1.6c2,3.3,3.9,6.6,5.8,9.9c1.6,2.9,3.1,6.3,5,9.1
		C171.7,390.1,171.6,390.1,171.6,390z M161.5,374.7c1.3,2.5,2.6,5.1,4,7.5c-1.3-2-2.5-4-3.7-6.1
		C161.7,375.7,161.6,375.2,161.5,374.7z M169.1,388.1c0.2,0.3,0.4,0.6,0.6,0.9c-0.3-0.2-0.6-0.4-0.8-0.6
		C169,388.4,169.1,388.3,169.1,388.1z M166.9,379.9c-1.1-1.9-2.3-3.9-3.5-5.8c-0.7-1.1-1.6-3.2-2.7-4.6c-0.1-0.9-0.1-1.7-0.1-2.6
		c0.3,0.5,0.6,0.9,0.8,1.4c1,2.5,2.6,4.9,3.9,7.2c2.6,4.9,5,10.1,8.1,14.8c0.1,0.2,0.2,0.2,0.3,0.3c-0.2,0-0.3-0.1-0.5-0.1
		C171,387.1,169,383.4,166.9,379.9z M174.4,389.8c-5-7.7-8.5-16.5-13.7-24.1c0-0.8,0-1.6,0-2.4c2.5,5.2,5.4,10.2,8,15.3
		c2.1,4,3.9,8.6,6.7,12.2c-0.5,0-1.1-0.1-1.6-0.2C174.2,390.7,174.7,390.2,174.4,389.8z M177.9,390.5c0.7-2.6-1.5-4.6-2.9-6.9
		c-2-3.1-3.6-6.4-5.4-9.7c-1.6-3-3.2-6-4.7-9c-0.7-1.4-1.4-2.8-2.1-4.2c-0.2-0.4-1-2.1-1.7-3.1c0.1-0.6,0.2-1.1,0.3-1.7
		c1.2,2.8,2.8,5.3,4.1,8c1.6,3.3,3,6.4,4.8,9.5c0.9,2.2,2.1,4.2,3.6,5.6c0.7,1.2,1.4,2.4,2,3.6c1.3,2.6,2.2,5.4,3.5,8
		c-0.2,0-0.5,0.1-0.7,0.1C178.9,390,178.1,389.8,177.9,390.5z M162.7,352c2.1,3.3,4.3,6.9,5.8,10.5c-0.9-1.6-2-3.1-2.8-4.5
		c-0.8-1.4-2-4-3.2-5.1c0,0,0,0,0-0.1C162.5,352.5,162.6,352.2,162.7,352z M164.4,348c0.6,1.3,1.2,2.5,1.9,3.8c0.7,1.3,1.6,2.6,2,4
		c0,0.1,0,0.2,0.1,0.3c0,0,0.1,0.1,0.1,0.1c0.2,0.2,0.6,0.1,0.6-0.3c-0.1-1.3-1.2-2.5-1.8-3.6c-0.9-1.6-1.8-3.2-2.7-4.8
		c0.2-0.3,0.4-0.7,0.6-1c1.3,2.5,2.9,4.9,4,7.5c0.2,0.5,1,0.1,0.7-0.4c-1.2-2.7-3-5-4.5-7.5c0.1-0.2,0.2-0.4,0.3-0.6
		c0.1-0.2,0.2-0.4,0.4-0.6c0.6,1.2,1.3,2.4,1.9,3.6c0.8,1.4,1.6,3,2.6,4.1c0.1,0.1,0.1,0.1,0.2,0.1c-1.2,2.4-1.9,5.3-2.1,8.1
		c-0.2-0.4-0.4-0.7-0.6-1.1c0.3,0.2,0.7-0.1,0.5-0.5c-1.4-3.3-3.7-6.3-5.1-9.6C163.8,349.1,164.1,348.6,164.4,348z M167,343.8
		c0.1,0.2,0.2,0.4,0.4,0.6c0,0.1,0.1,0.2,0.1,0.3c0,0.1,0.1,0.1,0.2,0.1c0.5,0.7,1,1.4,1.4,2.1c0.8,1.2,1.5,2.7,2.6,3.7
		c0.4,0.4,1.1-0.2,0.7-0.7c-1-1.1-1.8-2.5-2.6-3.7c-0.7-1-1.4-2-2.1-3.1c0.2-0.2,0.5-0.5,0.7-0.7c0.6,1.2,1.5,2.3,2.2,3.3
		c0.7,0.9,1.6,2.6,2.7,3c0.5,0.2,0.9-0.6,0.4-0.9c-0.5-0.3-0.9-1-1.3-1.4c-0.5-0.6-1-1.3-1.5-2c-0.4-0.6-0.8-1.1-1.2-1.7
		c-0.2-0.3-0.3-0.7-0.5-1c0.2-0.2,0.4-0.3,0.6-0.5c0.4,0.6,1,1.2,1.3,1.6c1.4,1.8,2.6,3.8,4,5.6c-1.5,0.7-2.7,2-3.7,3.6
		c-1.7-2.4-3.3-5-4.7-7.6C166.7,344.2,166.8,344,167,343.8z M170.1,340.9C170.1,341,170.2,341,170.1,340.9c0.2,0.2,0.3,0.1,0.2,0
		c0,0,0-0.1-0.1-0.1c0.3-0.2,0.6-0.4,0.9-0.6c0.6,1.2,1.4,2.3,2.1,3.3c1,1.5,2,2.9,3.1,4.3c-0.1,0.1-0.2,0.1-0.4,0.1
		c-0.1,0-0.1,0.1-0.2,0.1c0,0,0,0,0-0.1c-1.3-1.4-2.4-2.9-3.5-4.4C172,343.1,170.6,341.9,170.1,340.9
		C170.1,341,170.1,341,170.1,340.9z M172.7,339.5c0.1,0.1,0.2,0.1,0.2,0.2c2.1,2.2,3.2,5.2,4.9,7.7c-0.2,0-0.3,0.1-0.5,0.1
		c0-0.1,0-0.2-0.1-0.3c-1.3-1.3-2.4-2.8-3.5-4.3c-0.7-1-1.5-1.9-2.1-3C172,339.8,172.4,339.7,172.7,339.5z M196.3,371.9
		c-1.3-2.1-2.8-4.1-4.1-6.3c-1.5-2.4-2.8-4.9-4.3-7.2c-0.2-0.9-0.5-1.8-0.8-2.7c3,4.9,5.8,10.1,9.2,14.7
		C196.4,370.9,196.4,371.4,196.3,371.9z M174,375.4c-1.8-2.1-2.2-4.7-2.7-7.4c-0.7-4.6-0.9-13,2.9-17.2c5.5-3.8,9.8,1.5,11.3,6.9
		c1.4,5.1,1.3,12.2-1.6,16.7C181.4,378.4,177.1,379,174,375.4z M178.9,347.4c-1.6-2.4-3.1-5.5-5.2-7.6c0.5-0.1,1-0.2,1.5-0.3
		c0.4,1.1,1.6,2.2,2.2,3.1c1.1,1.6,2.1,3.4,3.2,5.1C180,347.5,179.5,347.4,178.9,347.4z M164.6,352.8c0.8,1.7,1.6,3.4,2.4,5.1
		c-1.3-2.2-2.8-4.4-4.2-6.6c0.1-0.4,0.3-0.7,0.4-1.1C163.7,351.2,164.3,352.1,164.6,352.8z M168.6,365.1c0,0.8,0.1,1.5,0.2,2.2
		c0,0.3,0.1,0.6,0.2,1c-0.8-1.6-1.7-3.3-2.5-4.9c-0.8-1.6-1.7-3.2-2.7-4.8c-0.3-0.5-1.5-2.5-2-3.1c0-0.2-0.1-0.3-0.1-0.5
		c0.1-0.4,0.2-0.9,0.3-1.3C164.4,357.4,166.7,361.1,168.6,365.1z M188.1,387.6c-1.3-3-3.5-5.7-5.5-8.4c0.4-0.2,0.7-0.5,1.1-0.7
		c1.5,2.6,3.3,5.2,5.1,7.7c0,0.2,0.2,0.4,0.4,0.4c0,0,0.1,0,0.1,0c0.3,0,0.6-0.4,0.4-0.7c-1.9-2.5-3.8-5.1-5.5-7.8
		c0.3-0.2,0.5-0.5,0.7-0.7c0.9,1.4,1.9,2.8,2.8,4.3c0.9,1.4,1.6,3,2.7,4.3c0,0,0,0,0,0C189.7,386.7,188.9,387.2,188.1,387.6
		C188.1,387.7,188.1,387.7,188.1,387.6z M191.1,385.5c-1.9-2.8-3.9-5.6-5.9-8.4c0.2-0.2,0.4-0.5,0.6-0.8c2,2.9,3.7,5.9,5.8,8.7
		C191.4,385.2,191.2,385.4,191.1,385.5C191.1,385.5,191.1,385.5,191.1,385.5z M191.4,375.1c-0.6-1-1.7-2.3-2.4-3.5
		c0.1,0.1,0.2,0.1,0.2,0.2c0.2,0.1,0.4-0.2,0.3-0.3c-0.1-0.1-0.1-0.1-0.2-0.2c-0.1-0.1-0.3,0-0.2,0.1c-0.2-0.6-0.4-1-0.7-1.5
		c0.1-0.5,0.2-1.1,0.3-1.7c0.7,1.6,1.7,3.1,2.5,4.6c1.2,2.2,2.5,4.4,3.7,6.7c0,0.1,0.1,0.1,0.1,0.1c-0.1,0.2-0.1,0.4-0.2,0.5
		C193.5,378.6,192.5,376.8,191.4,375.1z M188.8,364.7c0-1.2-0.1-2.5-0.3-3.7c2.5,4.2,5.1,8.3,7.3,12.6c0.1,0.2,0.2,0.2,0.3,0.3
		c-0.1,0.6-0.2,1.3-0.3,1.9C193.3,372.2,191.2,368.4,188.8,364.7z M185.6,340.4c2.5,3.7,4.9,7.5,7,11.4c0.1,0.3,0.4,0.3,0.6,0.2
		c0.6,1.8,1.2,3.7,1.6,5.5c-1.4-2.8-2.8-5.6-4.5-8.1c-1.2-1.9-2.7-3.7-4.1-5.6c-0.3-0.4-1.1-1.3-1.8-2c0.1,0,0.2-0.1,0.1-0.2
		c-0.4-0.6-0.9-1.2-1.3-1.8c-0.2-0.3-0.6,0-0.5,0.3c1.8,3.7,4.8,6.9,6.9,10.4c2.1,3.7,4,7.7,5.8,11.5c0.1,0.1,0.1,0.2,0.2,0.2
		c0.1,0.7,0.2,1.4,0.3,2.1c-2.5-4.3-4.7-8.8-7.3-13c-1.8-2.8-3.7-5.5-5.5-8.3c-0.1-0.1-0.3-0.5-0.6-0.9c-0.3-1.1-1.3-2.2-1.9-3
		c0,0,0,0,0,0C182.4,339.4,184.1,339.7,185.6,340.4z M190.7,345.5c0.4,1,0.8,2,1.2,3c-1.5-2.5-3-4.9-4.7-7.2
		C188.7,342.2,189.9,343.6,190.7,345.5z M180.3,339.2c-0.2,0.1-0.3,0.3-0.2,0.5c2.7,5.3,6.4,10,9.3,15.2c2.1,3.7,3.7,8.7,6.8,11.7
		c0,0,0,0,0,0c0,0.4,0.1,0.9,0.1,1.3c-0.8-1.4-1.8-2.8-2.5-4c-1.9-3.2-4-6.3-6-9.4c-1.9-2.9-3.8-5.8-5.7-8.7
		c-0.9-1.4-1.7-2.9-2.6-4.4c-0.4-0.6-1-1.9-1.3-2.2C179,339.2,179.6,339.2,180.3,339.2z M178.1,339.2c0,0,0,0.1,0,0.1
		C178.1,339.3,178.1,339.3,178.1,339.2C178.1,339.2,178.1,339.2,178.1,339.2z M177.2,339.3c0.4,1.1,0.9,2.2,1.5,3.3
		c-0.6-0.8-1.2-1.6-1.8-2.4c-0.1-0.1-0.2-0.2-0.3-0.3c-0.1-0.2-0.2-0.4-0.3-0.6C176.6,339.3,176.9,339.3,177.2,339.3z M163.5,380.9
		c-0.3-0.7-0.6-1.3-0.8-2c1.6,2.8,3.3,5.6,4.9,8.4C165.9,385.5,164.6,383.2,163.5,380.9z"/>
	<path class="st4" d="M229.4,382c-1.5-2-2.8-4.1-4.6-5.9c2.3-3.8,5.9-7,8.7-10.4c1.1-1.4,3.4-3.7,1-5c-1.3-0.7-3.3-0.4-4.7-0.4
		c-1.5,0-3.9-0.5-5.4,0.1c-1.2,0.5-1.6,2.3-2.1,3.4c-0.6,1.2-1.3,2.4-1.9,3.6c-0.3-6.5-0.8-13.4-2.2-19.6c-0.9-4.2-7.7-3-10.8-2.5
		c-0.4,0.1-0.7,0.5-0.7,0.9c-0.1,1.2,0,2.5,0.2,3.7c0,0.4-0.1,0.8-0.1,1.3c0,0.1-0.1,0.1,0,0.2c0,0,0,0,0,0c-0.1,3.1,0,6.1,0.1,9.2
		c0,0,0,0.1,0,0.1c0.1,2.4,0.2,4.7,0.4,7.1c0.4,7.5,0.4,14.9,0.4,22.4c0,0.3,0.1,0.6,0.3,0.8c0,0.1,0.1,0.2,0.2,0.3
		c1.5,2.1,6,0.8,8.3,0.8c0.6,0,1.2-0.5,1.2-1.2c0-2.2-0.1-4.8,0.1-7.3c0.9,1.5,1.8,3.1,2.8,4.5c0.7,0.9,1.5,3.2,2.6,3.8
		c0.8,0.4,1.7,0,2.6-0.1c2.8-0.4,5.8-0.5,8.6-1.2c0.8-0.2,1.1-1.1,0.7-1.8C233.5,386.6,231.3,384.4,229.4,382z M228.8,389.3
		c-3.5-3.3-7-6.6-10.4-10c-2-2-3.9-4-5.9-5.9c-0.7-0.7-1.5-1.6-2.3-2.1c-0.1,0-0.1-0.1-0.2-0.1c-0.2-0.2-0.3-0.4-0.5-0.6
		c0-0.6-0.1-1.3-0.1-1.9c0-0.1,0-0.2,0-0.3c0.3,0.3,0.6,0.5,0.8,0.8c0.6,0.6,1.2,1.2,1.2,1.2c0,0,0.1,0.1,0.1,0.1
		c6.2,6.2,12.1,12.7,18.5,18.6C229.7,389.3,229.3,389.3,228.8,389.3z M226.7,389.4c-1.2-1.2-2.6-2.3-4-3.4c0,0,0,0,0.1,0
		c0.1,0,0.2,0,0.2-0.1c0,0,0-0.1,0-0.1c0-0.1-0.1-0.1-0.2-0.1c-0.2,0.1-1.7-1.3-2.2-1.7c-0.5-0.9-1.1-1.9-1.7-2.7
		c1.6,1.6,3.2,3.1,4.8,4.6c1.2,1.1,2.2,2.3,3.4,3.5C226.9,389.4,226.8,389.4,226.7,389.4z M211.8,390.1c-0.6-0.7-1.3-1.5-2-2.2
		c0-0.1,0-0.2,0-0.3c0.6,0.7,1.2,1.3,1.8,1.9c0.3,0.4,0.9-0.2,0.5-0.5c-0.5-0.5-1-0.9-1.5-1.3c-0.2-0.2-0.5-0.5-0.7-0.7
		c0,0-0.1-0.1-0.1-0.1c0-0.4,0-0.7,0-1.1c1,1.6,2.7,2.7,3.8,4.2C213.1,390,212.4,390,211.8,390.1z M210.4,347c2.1,2.5,4.3,5,6.3,7.6
		c0,0.3,0.1,0.6,0.1,0.9c-0.7-0.7-1.4-1.3-1.9-1.9c-1.8-2.2-3.7-4.4-5.7-6.4C209.6,347.1,210,347.1,210.4,347z M211.9,347
		c0.9,1,1.8,2,2.7,3c0.6,0.8,1.3,1.6,1.9,2.3c0,0.2,0.1,0.5,0.1,0.7c-0.7-0.8-1.5-1.6-2.2-2.4c-1.1-1.3-2.2-2.5-3.3-3.7
		C211.3,347,211.6,347,211.9,347z M213.2,347.1c1,1.2,2.1,2.2,3.1,3.3c0,0.4,0,0.8,0,1c-1.3-1.4-2.7-2.9-3.9-4.4
		C212.7,347,213,347,213.2,347.1z M225.2,363.3c1.4,1.2,2.8,2.5,4.2,3.7c-0.2,0.2-0.4,0.4-0.6,0.7c-1.3-1.3-2.6-2.6-4-3.9
		C225,363.6,225.1,363.4,225.2,363.3z M226.3,362.8c0.6,0.5,1.1,1,1.7,1.5c0.4,0.4,0.8,0.7,1.2,1.1c0.3,0.2,0.7,0.5,1,0.8
		c-0.1,0.1-0.2,0.3-0.3,0.4c-1.4-1.2-2.9-2.4-4.4-3.5C225.9,362.6,225.2,362.7,226.3,362.8z M227.8,362.9c0.1,0.1,0.2,0.2,0.3,0.2
		c1,0.7,1.9,1.5,2.8,2.2c-0.1,0.1-0.3,0.3-0.4,0.4c-0.6-0.6-1.4-1-2-1.5c-0.5-0.4-1.1-0.9-1.6-1.3
		C227.3,362.9,227.5,362.9,227.8,362.9z M231.9,362.8c0.2,0.2,0.4,0.5,0.7,0.7c-0.1,0.1-0.2,0.3-0.4,0.4c-0.4-0.2-0.7-0.5-1-0.7
		c-0.1-0.1-0.3-0.2-0.4-0.3C231.2,362.9,231.6,362.9,231.9,362.8z M228.8,362.9c0.1,0,0.5,0,0.9,0c0.4,0.3,0.8,0.6,1.1,0.8
		c0.3,0.2,0.6,0.5,0.9,0.8c-0.1,0.1-0.2,0.2-0.3,0.3c-0.8-0.5-1.5-1-2.3-1.6c-0.2-0.1-0.4-0.2-0.5-0.4
		C228.7,362.9,228.7,362.9,228.8,362.9z M228.3,368.2c-0.2,0.2-0.3,0.4-0.5,0.5c-0.2-0.2-0.3-0.4-0.5-0.6c-0.4-0.5-0.9-0.9-1.3-1.3
		c-0.6-0.6-1.2-1.2-1.8-1.8c0.1-0.2,0.2-0.5,0.3-0.7C225.8,365.6,227.1,366.9,228.3,368.2z M226,367.4c0.5,0.5,0.9,1.3,1.5,1.8
		c-0.1,0.1-0.2,0.2-0.3,0.4c0,0-0.1,0.1-0.1,0.1c-0.5-0.4-1-1.1-1.4-1.5c-0.6-0.7-1.2-1.4-1.9-2c0.1-0.3,0.2-0.5,0.4-0.8
		C224.7,366,225.3,366.7,226,367.4z M223.4,366.7c0,0,0-0.1,0.1-0.1c0.7,0.8,1.5,1.6,2.2,2.5c0.3,0.3,0.6,0.8,1,1.1
		c-0.1,0.2-0.3,0.3-0.4,0.5c-0.1-0.1-0.1-0.1-0.2-0.2c-0.5-0.4-0.9-0.8-1.4-1.2c-0.6-0.5-1.2-1.1-1.8-1.7
		C223,367.3,223.2,367,223.4,366.7z M223.8,369.2c0.6,0.6,1.5,1.2,2,1.9c-0.2,0.2-0.3,0.4-0.5,0.5c-0.2-0.2-0.3-0.3-0.5-0.4
		c-0.9-0.8-1.8-1.6-2.7-2.4c0.2-0.3,0.3-0.6,0.5-0.8C223,368.4,223.4,368.8,223.8,369.2z M221.9,369.2c0.7,0.6,1.4,1.2,2.1,1.9
		c0.2,0.2,0.7,0.6,1.1,1c-0.1,0.2-0.3,0.3-0.4,0.5c-0.4-0.4-0.8-0.7-1.2-1.1c-0.6-0.6-1.2-1.1-1.8-1.7
		C221.6,369.6,221.7,369.4,221.9,369.2z M209.1,358.7c1.7,2.1,3.4,4.1,5.2,6.1c0.7,0.8,1.5,1.7,2.2,2.5c0.5,0.5,1.3,1.2,1.9,1.9
		c0,0.1,0,0.3,0,0.4c-2.1-2.3-6.9-7.3-9.3-9.5C209.2,359.7,209.1,359.2,209.1,358.7z M220.2,371.4c0.2-0.1,0.4-0.2,0.5-0.3
		c0.7,0.5,1.3,1.1,2,1.7c0.4,0.3,0.7,0.7,1,1.1c-0.1,0.2-0.2,0.4-0.4,0.6c-0.6-0.5-1.2-1-1.8-1.5c-0.5-0.4-1-0.9-1.5-1.3
		C220.1,371.5,220.1,371.5,220.2,371.4z M222.6,371.5c0.4,0.4,0.7,0.7,1.1,1.1c0.1,0.1,0.3,0.3,0.5,0.4c-0.1,0.2-0.3,0.4-0.4,0.6
		c-1-0.9-2-1.8-3.1-2.6c0.2-0.3,0.3-0.5,0.5-0.8C221.7,370.6,222.2,371.1,222.6,371.5z M208.6,349.4c3,3.3,6,6.7,8.8,10.2
		c0,0.3,0.1,0.5,0.1,0.8c-1-1.1-2.2-2-3.1-3.1c-2-2.2-3.8-4.5-5.7-6.7C208.7,350.2,208.7,349.8,208.6,349.4z M214.1,353.8
		c0.9,1.2,2,2.3,3,3.5c0,0.3,0.1,0.5,0.1,0.8c-2.7-3.2-5.7-6.3-8.6-9.3c0-0.3-0.1-0.6-0.1-0.8c0,0,0,0,0,0c0.1-0.3,0.1-0.5,0.1-0.6
		c0,0,0.1,0,0.2,0C210.6,349.4,212.4,351.6,214.1,353.8z M208.8,351.4c1.5,1.9,3,3.8,4.5,5.6c0.4,0.4,3.1,3.2,4.4,4.7
		c0.1,0.7,0.2,1.4,0.2,2.2c-1.6-1.9-3.2-3.8-4.9-5.6c-1.3-1.4-2.8-2.9-4.1-4.4C208.9,353.1,208.8,352.3,208.8,351.4z M216,365.6
		c-2.3-2.4-4.5-4.7-6.7-7.2c-0.1-0.1-0.2-0.1-0.2,0c0-0.4,0-0.8,0-1.2c0.9,1.1,1.9,2.1,2.8,3c2.1,2.3,4.2,4.6,6,7.2
		C217.2,366.8,216.5,366.2,216,365.6z M209.2,361c3.1,3.3,6.5,6.6,9.2,10.2c0.1,0.3,0.3,0.5,0.7,0.4c0,0,0.1,0,0.1,0
		c0.1,0,0.1-0.1,0.2-0.1c0,0,0.1,0,0.1,0c0.6,0.5,1.2,1.1,1.7,1.6c0.6,0.6,1.3,1.1,1.8,1.7c-0.1,0.2-0.2,0.3-0.3,0.5
		c-0.1,0.2-0.1,0.3-0.1,0.5c-2.6-2.5-5.2-4.9-7.7-7.5c-1.7-1.7-3.3-3.4-5-5c-0.1-0.1-0.4-0.5-0.7-0.9c0-0.1,0-0.2,0-0.3
		c0.2,0.2,0.4,0.4,0.5,0.4c0.1,0.1,0.3-0.1,0.2-0.2c-0.2-0.2-0.5-0.4-0.7-0.5C209.2,361.6,209.2,361.3,209.2,361z M215.3,383.3
		c-0.7-0.7-1.4-1.4-2.1-2.2c-1.1-1.2-2.3-2.4-3.4-3.7c0-0.4,0-0.9,0-1.3c1,1.1,2,2.1,3,3.2c0.8,0.9,2.1,2.1,2.6,3.3
		C215.4,383,215.4,383.2,215.3,383.3C215.4,383.3,215.4,383.3,215.3,383.3z M215.3,386.6c-1.7-2-3.6-3.7-5.3-5.7c0-0.4,0-0.7,0-1.1
		c1.8,1.9,3.5,4.1,5.3,5.9C215.3,386,215.3,386.3,215.3,386.6z M215.6,381.6c-0.5-0.7-1.2-1.3-1.6-1.8c-1.3-1.5-2.7-2.8-4.2-4.2
		c0-0.1,0-0.3,0-0.4c0.8,0.8,1.6,1.6,2.4,2.5c1.2,1.2,2.2,2.5,3.4,3.8c0,0,0,0,0,0C215.7,381.5,215.7,381.6,215.6,381.6z
		 M214.7,389.8c-0.7-0.9-1.6-1.7-2.4-2.5c-0.8-0.7-1.7-1.4-2.2-2.3c0,0,0,0-0.1,0c0-0.4,0-0.8,0-1.1c0.7,0.8,1.6,1.5,2.3,2.3
		c0.7,0.8,1.4,1.7,2,2.6c0.2,0.2,0.4,0.5,0.6,0.8c0,0.1,0,0.3,0.1,0.4l0.1,0.1c-0.1,0-0.2,0-0.3,0
		C214.7,389.9,214.7,389.9,214.7,389.8z M213.6,386.8c-1.1-1.2-2.6-2.2-3.7-3.5c0-0.6,0-1.2,0-1.9c1.6,1.9,3.4,3.6,4.9,5.6
		c0,0.2,0.1,0.4,0.3,0.4c0,0,0.1,0,0.1,0c0,0.4,0,0.8,0,1.1C214.8,387.9,214.1,387.3,213.6,386.8z M209.9,379.1c0-0.3,0-0.6,0-1
		c0.9,1,1.7,2,2.6,3c0.5,0.6,1.1,1.2,1.6,1.8c0.3,0.4,0.9,0.8,1.2,1.2c0,0.1,0,0.3,0,0.4C213.6,382.7,211.8,380.9,209.9,379.1z
		 M215.9,380.5c0,0.1,0,0.1,0,0.2c-2-2-4.2-3.9-6.1-6.1c0-0.4,0-0.8-0.1-1.2c0.9,1,1.9,1.9,2.7,3c1.1,1.3,2.1,2.7,3.2,4
		C215.8,380.3,215.9,380.4,215.9,380.5C215.9,380.4,215.9,380.4,215.9,380.5z M211.4,374.1C211.4,374.1,211.4,374.1,211.4,374.1
		c-0.5-0.5-1.1-1.1-1.6-1.6c0,0,0-0.1-0.1-0.1c0-0.2,0-0.3,0-0.5c0.6,0.7,1.2,1.5,1.9,2.2C211.5,374,211.4,374,211.4,374.1z
		 M217.9,375.6c-2.1-2-4.2-4-6.3-6.1c-0.3-0.3-1.3-1.6-1.9-1.9c-0.1,0-0.1-0.1-0.2-0.1c0-0.3,0-0.6,0-1c3.4,3.7,7.1,7.2,10.8,10.7
		c2.1,2,4,4.1,5.9,6.2C223.4,380.9,220.6,378.3,217.9,375.6z M221,376.5c-2.3-2-4.5-4-6.7-6.1c-1.1-1-2.1-2.1-3.2-3.1
		c-0.2-0.2-1-1.1-1.5-1.5c-0.1-0.1-0.1-0.2-0.2-0.4c0-0.5,0-1-0.1-1.5c1.8,2,3.7,3.8,5.5,5.7c2.9,3,5.8,5.9,8.7,8.9
		c0,0.2,0.2,0.4,0.5,0.4l0.1,0c0.1,0,0.2,0,0.3-0.1c1,1.6,2.2,3.1,3.4,4.7C225.6,381.1,223.4,378.7,221,376.5z M233.2,362.4
		c0,0.1,0,0.3-0.2,0.5c-0.1-0.1-0.2-0.1-0.2-0.2C233.1,362.6,233.3,362.5,233.2,362.4z M216.1,348.2c0.1,0.1,0.2,0.5,0.2,1
		c-0.6-0.6-1.3-1.2-1.9-1.9C215.1,347.5,215.8,347.8,216.1,348.2z M211.6,357.7c2.2,2.5,4.4,5,6.3,7.7c0,0.1,0,0.2,0.2,0.3
		c0,0.1,0,0.3,0,0.4c-1.2-1.5-2.6-2.9-3.9-4.3c-1.5-1.6-3.6-3.3-5.2-5.2c0-0.7-0.1-1.3-0.1-2C209.8,355.7,210.7,356.7,211.6,357.7z
		 M209.8,389.9c0-0.4,0-0.9,0-1.3c0.4,0.5,0.9,1,1.3,1.6c-0.6,0-0.9,0.1-0.9,0.1C210.1,390.1,210,389.9,209.8,389.9z M216.5,379.8
		c0-0.1-0.1-0.1-0.1-0.2c-0.1-0.2-0.3-0.3-0.4-0.5c0,0,0,0,0,0c-1-1.1-1.9-2.2-2.9-3.4c-0.4-0.5-0.8-0.9-1.2-1.3c0,0,0-0.1,0-0.1
		l-0.1-0.2c1.8,1.9,3.7,3.7,5.5,5.4C216.9,379.6,216.7,379.6,216.5,379.8z M223.1,387.8c-0.3-0.3-0.6-0.7-0.8-1.1
		c0.3,0.3,0.6,0.5,0.9,0.8c0.7,0.6,1.4,1.3,2.1,1.9C224.4,389.4,224.4,389.3,223.1,387.8z M231.9,389c-0.1-0.1-0.2-0.2-0.4-0.3
		c-0.2-0.2-0.3-0.3-0.5-0.5c0.1,0,0.2-0.1,0.3-0.2c0.2,0.3,0.4,0.6,0.7,0.9C232,389,231.9,389,231.9,389z"/>
	<path class="st4" d="M89.8,336.7c-0.2-0.1-0.4,0.2-0.3,0.3c0.2,0.2,0.5,0.4,0.7,0.6c0,0,0.1,0.2,0.5,0.7c0.4,0.4,0.9,0.8,1.3,1.2
		c1,1.1,1.9,2.3,2.9,3.5c1.7,2.2,3.5,4.5,5.5,6.5c0.5,0.5,1.3-0.3,0.8-0.8C97.4,344.7,94.2,340,89.8,336.7z"/>
</g>
<path class="st4" d="M174.6,267.5c-0.9-3.4-3.9-6.5-7.5-7.1c-2.2-0.4-4,0.3-5.4,1.5c-2-2.8-4.1-5.5-6.1-8.3c-1.6-2.4-3-4.9-4.3-7.5
	c0.1-0.1,0.2-0.1,0.3-0.2c5.2-4,5.4-13.8-0.4-17.3c-5.1-3.1-9.7,0.1-12,4.5c-0.9,1.3-1.5,2.7-1.8,4.3c-0.5,2.8-0.1,5.7,2,7.8
	c-2,3.2-3.9,6.6-5.6,10c-1.2,2.6-2.3,5.2-3.3,7.8c-0.2,0.5-0.4,1-0.7,1.5c-1.8-1-3.5-1.3-5.2-0.9c-1.3-0.1-2.4,0.3-3.5,0.9
	c-0.1,0.1-0.3,0.2-0.4,0.2c-1.4,0.9-2.3,2-2.9,3.3c-1.3,2.2-2,4.8-1.7,7c0.4,3.5,3.2,6.7,6.7,7.3c0.1,0,0.1,0,0.2,0
	c2.4,1.1,5.2,0.8,7.5-1.7c0.9-1,1.6-2.2,2-3.5c2.1-3.3,2-7.9-0.5-10.9c1.5-3.9,3.2-7.8,5-11.4c1.4-2.8,3-5.4,4.6-8.1
	c1.1,0.7,2.4,1.1,4,1.2c1.3,0,2.6-0.2,3.7-0.7c2.9,5.8,6.7,11.1,10.4,16.4c-4.3,3.9-3.5,11.7,1.3,14.7c1.4,1.1,3.1,1.7,5,1.6
	c3.7-0.2,6.7-3.1,8-6.4c0.2-0.5,0.4-1.1,0.5-1.6C174.9,270.5,175,268.9,174.6,267.5z"/>
<g>
	<path class="st4" d="M193.9,131.8c3-4,4.7-9.7,1.5-14c-1.6-2.3-4-3.5-6.4-3.7c-1-0.2-2.1-0.3-3.3,0c-0.6-0.1-1.1-0.1-1.6,0
		c-4.2,0.5-6.7,4.7-7.8,8.4C173.2,133.3,186.7,141.3,193.9,131.8z"/>
	<path class="st4" d="M202.8,145.9c-3.4-4.4-9.2-7.5-14.8-7.7c-2.1-0.1-3.8,0.3-5.5,1.1c-8.6,1.6-14.2,10.8-16.2,18.8
		c-0.8,3.1-1.7,6.1-2.2,9.3c-0.3,2.1-1.3,5.5-0.4,7.5c1.6,3.7,9.5,2.9,12.6,3.1c7,0.4,14.3,0.5,21.3,0c3.6-0.3,10.9,0.1,13.3-3.3
		c2.3-3.3,0-11.2-1.1-14.6C208.2,155.1,206,150.1,202.8,145.9z M202.6,172.5c0.1,0.1,0.1,0.1,0.2,0.2c-0.2,0-0.5,0.1-0.7,0.1
		C202.3,172.8,202.4,172.7,202.6,172.5z"/>
	<path class="st4" d="M224.4,114.7c1.8-2.4,2.8-5.7,0.9-8.3c-1-1.3-2.3-2.1-3.8-2.2c-0.6-0.1-1.3-0.2-1.9,0c-0.3,0-0.7-0.1-1,0
		c-2.5,0.3-4,2.8-4.6,5C212.2,115.6,220.1,120.3,224.4,114.7z"/>
	<path class="st4" d="M233.8,131.5c-0.9-3-2.2-5.9-4.1-8.4c-2-2.6-5.4-4.5-8.7-4.6c-1.3,0-2.2,0.2-3.3,0.6c-5.1,1-8.4,6.4-9.6,11.1
		c-0.5,1.8-1,3.6-1.3,5.5c-0.2,1.2-0.7,3.2-0.2,4.5c0.9,2.2,5.6,1.7,7.4,1.8c4.1,0.2,8.4,0.3,12.6,0c2.1-0.2,6.5,0.1,7.9-1.9
		C235.8,138.2,234.4,133.5,233.8,131.5z M229.6,138.8c0,0,0.1,0.1,0.1,0.1c-0.1,0-0.3,0-0.4,0C229.3,139,229.5,138.9,229.6,138.8z"
		/>
	<path class="st4" d="M158.9,114.7c1.8-2.4,2.8-5.7,0.9-8.3c-1-1.3-2.3-2.1-3.8-2.2c-0.6-0.1-1.3-0.2-1.9,0c-0.3,0-0.7-0.1-1,0
		c-2.5,0.3-4,2.8-4.6,5C146.7,115.6,154.6,120.3,158.9,114.7z"/>
	<path class="st4" d="M168.9,140.2c1.4-2,0-6.6-0.7-8.7c-0.9-3-2.2-5.9-4.1-8.4c-2-2.6-5.4-4.5-8.7-4.6c-1.3,0-2.2,0.2-3.3,0.6
		c-5.1,1-8.4,6.4-9.6,11.1c-0.5,1.8-1,3.6-1.3,5.5c-0.2,1.2-0.7,3.2-0.2,4.5c0.9,2.2,5.6,1.7,7.4,1.8c4.1,0.2,8.4,0.3,12.6,0
		C163.2,141.9,167.5,142.1,168.9,140.2z M164.1,138.8c0,0,0.1,0.1,0.1,0.1c-0.1,0-0.3,0-0.4,0C163.8,139,164,138.9,164.1,138.8z"/>
</g>
<path class="st4" d="M415.8,116.2c-0.4-11.3-1.7-22.7-1.6-34c0-3,1.3-7.1-0.9-9.6c-2.2-2.4-6.5-1.4-9.4-1.4
	c-11.2,0-22.4,0.2-33.7-0.4c-6-0.3-11.8-0.2-17.8,0c-5.2,0.2-10.9-0.9-16.1-0.3c-0.1,0-0.2,0.1-0.3,0.1c-0.4,0-0.8,0.3-0.8,0.8
	c0,0.3,0,0.5,0,0.8c0,0.5,0,1,0,1.5c-0.1,7.1,0.3,14.2,0.5,21.3c0.2,7.5-0.2,15.1,0.8,22.5c0.1,0.8,0.6,1.3,1.4,1.4
	c6.5,0.4,13.2-0.6,19.7-0.4c7,0.3,13.9,0.6,20.9,0.7c6.7,0,13.5,0.1,20.2-0.1c3.5-0.1,6.9-0.3,10.4-0.4c2.2,0,4.1,0.4,6-0.7
	c0.6-0.4,0.8-0.9,0.7-1.5C415.8,116.6,415.8,116.4,415.8,116.2z M411.6,85.2c0.3,8.8,0.9,17.6,1.5,26.3c-1.6-2.3-3.8-4.4-5.5-6.4
	c-4.8-5.7-9.6-11.2-14.8-16.6c3.4-2.8,6.8-5.5,10.3-8.1c2.4-1.8,5.3-3.4,7.5-5.5c0.6,0.5,1,1.3,1.2,2.6
	C412.1,79.8,411.5,82.7,411.6,85.2z M339.6,73.1c2,0.2,4.1,0.4,6.1,0.4c5.4,0.2,10.8-0.2,16.2-0.2c10.2,0,20.4,0.9,30.7,0.9
	c4.8,0,9.6,0,14.4,0c0.1,0,0.2,0,0.3,0c-4.3,3.5-9.5,6.3-13.8,9.8c-2.6,2.2-5.2,4.4-7.8,6.6c-2.7,2.3-6.7,8-10.6,6.8
	c-3.3-1-7.1-4-10-5.9c-2.8-1.8-5.4-3.8-8.2-5.6c-6.3-4.2-13.7-7.7-19.2-12.8C338.2,72.9,338.7,73,339.6,73.1z M337.2,75.3
	c5.4,5.7,13.6,9.3,19.9,13.7c0.9,0.7,1.8,1.3,2.8,2c-4.4,4.1-8.3,8.9-12.1,13.5c-2.8,3.5-4.9,8.6-8.6,11.3
	c-0.7-6.8-0.5-13.8-0.8-20.7C338,88.6,337.7,81.9,337.2,75.3z M405,116.2c-3.3,0.2-6.7,0.3-10,0.3c-6.4,0.1-12.8,0.1-19.2,0
	c-6.4-0.1-12.7-0.4-19.1-0.7c-4.8-0.2-9.6,0.4-14.3,0.5c2.4-2.4,4.1-5.7,6-8.4c3.9-5.5,8.6-10.6,13-15.8c1.8,1.3,3.7,2.6,5.6,3.8
	c2.6,1.6,6.8,5.1,9.9,5.1c2.5,0.1,4.4-2.1,6-3.8c2.8-2.8,5.8-5.3,8.8-7.9c3.6,5.7,8.7,10.6,12.8,16c2.7,3.5,6.2,6.9,8.2,10.8
	C410.5,116.7,407,116.1,405,116.2z"/>
<path class="st4" d="M576.2,200.8c-2.6,2.4-5.2,5-7.7,7.6c-0.7,0.7,0.2,2,1.1,1.4c3.1-1.9,5.7-4.8,8.5-7.1
	C579.4,201.6,577.5,199.6,576.2,200.8z"/>
<path class="st4" d="M595.3,186.4c-0.2-1.2-1.9-1-2.3,0c0.2-0.1,0.1-0.1-0.1,0.1c-0.1,0.1-0.3,0.1-0.4,0.2c-0.4,0.2-0.8,0.5-1.1,0.7
	c-0.5,0.3-0.9,0.7-1.4,1c-0.8,0.5-2,1.2-1.9,2.3c0,0.7,0.9,0.9,1.3,0.4c-0.3,0.4,0.2-0.1,0.4-0.2c0.3-0.2,0.6-0.4,0.9-0.5
	c0.5-0.3,1-0.6,1.6-0.9C593.5,188.7,595.6,188.4,595.3,186.4z"/>
<path class="st4" d="M608.7,170.3c-0.6,0.8-1.3,1.6-1.9,2.4c-0.7,0.9-1.5,1.6-2.4,2.3c-0.6,0.5,0.3,1.4,0.9,0.9
	c0.8-0.7,1.7-1.3,2.5-2c0.8-0.7,1.8-1.2,2.5-2C611.2,170.8,609.6,169.2,608.7,170.3z"/>
<path class="st4" d="M632.7,153.3c-1.5,1.9-3.6,3-5.6,4.2c-0.8,0.4-0.1,1.6,0.7,1.2c2.2-1.1,4.6-2.1,6.4-3.8
	C635.2,153.8,633.6,152.3,632.7,153.3z"/>
<path class="st4" d="M582.2,266.4c-1.2,0.1-2.3,0.4-3.5,0.6c-1.3,0.2-2.6,0.2-3.9,0.3c-0.9,0.1-0.9,1.3,0,1.4
	c1.2,0.1,2.5,0.3,3.7,0.3c1.2,0,2.4-0.2,3.6,0C583.8,269.2,583.8,266.4,582.2,266.4z"/>
<path class="st4" d="M610.4,264.7c-2.9-0.7-6,0.1-9,0.1c-0.8,0-0.8,1.3,0,1.3c2.7,0,5.9-0.2,8.4,0.7
	C611.2,267.3,611.8,265,610.4,264.7z"/>
<path class="st4" d="M634.5,263.3c-2.2-0.1-5.4-0.4-7.2,1.2c-0.3,0.2,0,0.6,0.3,0.7c1.1,0,2.3-0.1,3.4,0c1.2,0.1,2.3,0.3,3.5,0.3
	C635.9,265.4,635.9,263.4,634.5,263.3z"/>
<path class="st4" d="M652.8,262.2c-1.6,0.1-3.1,0.3-4.7,0.3c-0.7,0-0.7,1.1,0,1.1c1.6,0,3.1,0.2,4.7,0.3
	C653.9,264,653.9,262.1,652.8,262.2z"/>
<path class="st4" d="M626.8,381c-3.9,0.7-7.4-0.5-11.2-0.9c-0.2-0.1-0.6-0.2-0.8-0.1c-0.1,0-0.2,0.1-0.3,0.1
	c-0.7,0.3-0.5,1.5,0.2,1.7c4.2,1.1,8.5,2.9,12.8,1.9C629.3,383.3,628.5,380.7,626.8,381z"/>
<path class="st4" d="M645.2,381.4c-2.6,0.2-5.1,0.4-7.7,0.4c-0.7,0-0.7,1.1,0,1.1c2.6,0,5.1,0.2,7.7,0.4
	C646.4,383.4,646.4,381.3,645.2,381.4z"/>
<path class="st4" d="M662.8,381.9c-2.6-0.2-5.1-0.1-7.7,0.1c-0.9,0.1-0.9,1.4,0,1.5c2.6,0.2,5.1,0.4,7.7,0.8
	C664.3,384.4,664.3,382,662.8,381.9z"/>
<path class="st4" d="M679.2,383.1c-2,0.2-4,0-6-0.1c-0.4,0-0.5,0.7-0.1,0.7c2.1,0.4,4,1,6.1,1.2C680.3,385.1,680.3,383,679.2,383.1z
	"/>
<path class="st4" d="M599.6,435.6c-1-1.2-1.3-3.4-3-3.5c-0.7-0.1-1.2,0.7-1,1.4c0,0,0,0,0,0c0.2,1.2,1,2.7,1.6,3.7
	c0.5,0.8,1.7,1.5,1.9,2.4c0.5,1.6,3,1.3,2.9-0.4C602,437.3,600.5,436.7,599.6,435.6z"/>
<path class="st4" d="M607.8,449.7c0.4,0,0.1-0.1-0.1-0.3c-0.1-0.1-0.2-0.3-0.3-0.4c-0.3-0.4-0.5-0.7-0.8-1c-0.7-0.8-1.4-1.6-2.1-2.3
	c-0.5-0.5-1.3,0.3-0.8,0.8c0.9,0.8,1.4,2.1,1.9,3.3c0.4,0.9,0.6,1.9,1.5,2.5C608.9,453.3,610.2,449.9,607.8,449.7z"/>
<path class="st4" d="M615.3,461.7c-0.3-1-1.1-1.7-1.7-2.5c-0.6-0.8-1-1.8-1.7-2.5c-0.4-0.5-1.2,0.2-0.7,0.7c0.7,0.7,0.8,1.6,1.2,2.5
	c0.3,0.7,0.7,1.4,0.7,2.1C612.8,463.8,615.9,463.5,615.3,461.7z"/>
<path class="st4" d="M624.2,471.8c-0.3-0.2-0.2,0-0.4-0.4c-0.2-0.3-0.4-0.6-0.6-0.9c-0.2-0.2-0.4-0.5-0.6-0.7
	c-0.2-0.3-0.4-0.6-0.7-0.9c-0.3-0.2-0.7-0.1-1,0.1c-1,0.8,0,2.1,0.4,3c0.4,0.9,0.7,2.1,1.8,2.3c0.7,0.1,1.4-0.1,1.6-0.8
	C625,473,624.8,472.2,624.2,471.8z"/>
<path class="st4" d="M461.5,431.5c0-0.2,0-0.3-0.1-0.4c-0.2-0.4-0.5-0.6-0.9-0.6c-0.4,0-0.8,0.1-0.9,0.5c-0.1,0.1-0.1,0.3-0.1,0.5
	c-0.5,2.4-0.4,5.1-0.5,7.6c-0.1,2,3.2,2,3.1,0C461.9,436.6,462.1,433.9,461.5,431.5z"/>
<path class="st4" d="M460.5,453.6c-0.2-1-0.3-2.1-0.3-3.2c0-0.9-1.5-0.9-1.5,0c0,1-0.2,1.9-0.3,2.9c-0.1,0.9,0.2,1.9,0.1,2.7
	c-0.4,2,2.7,2.2,2.6,0.3C461.1,455.4,460.7,454.5,460.5,453.6z"/>
<path class="st4" d="M461.6,467.2c0-0.7,0-1.5-0.3-2.3c0,0,0-0.1,0-0.1c0,0,0,0,0,0c0,0,0,0,0,0c-0.1-0.2-0.2-0.4-0.4-0.5
	c0,0,0,0-0.1,0c-0.1,0-0.1,0-0.2,0c0,0-0.1,0-0.1,0c-0.1,0-0.1,0-0.2,0c-0.1,0-0.1,0-0.2,0c0,0-0.1,0-0.1,0
	c-0.2,0.1-0.4,0.3-0.4,0.5c0,0,0,0,0,0c0,0,0,0,0,0c0,0,0,0.1,0,0.1c-0.2,0.7-0.2,1.5-0.3,2.3c0,0.8-0.1,1.7-0.1,2.5
	c0.1,1.6,2.4,1.6,2.5,0C461.8,468.9,461.7,468.1,461.6,467.2z"/>
<path class="st4" d="M462.6,484.6c-0.1-0.5-0.1-1.1-0.3-1.6c0-0.1-0.1-0.3-0.2-0.4c-0.1-0.2-0.4-0.3-0.6-0.3c0,0-0.1,0-0.1,0
	c0,0,0,0,0,0c-0.2,0-0.4,0.1-0.6,0.3c-0.1,0.1-0.2,0.3-0.2,0.4c-0.2,0.5-0.2,1.1-0.3,1.6c-0.1,0.7-0.2,1.4-0.1,2.1
	c0.2,1.2,2.2,1.2,2.4,0C462.8,486,462.7,485.3,462.6,484.6z"/>
<path class="st4" d="M322.4,465.8c-0.3-0.9-1.6-1-1.9,0c-0.1,0.7-0.8,1.3-1.2,1.8c-0.6,0.7-0.9,1.4-1.5,2.1c-1.1,1.4,0.7,3.3,2,2
	c0.8-0.8,1.1-2,1.7-2.9C322.1,467.9,322.7,466.9,322.4,465.8z"/>
<path class="st4" d="M312.4,480.6c-0.3,0.6-0.7,1.2-1.1,1.7c-0.5,0.7-1,1.3-1.4,2c-1,1.7,1.8,3.2,2.5,1.5c0.7-1.7,2.1-3.2,2.2-5
	C314.8,479.2,312.6,479.5,312.4,480.6z"/>
<path class="st4" d="M305.3,494.7c0.4-1-1.3-1.4-1.6-0.6c-0.4,0.5-0.7,1-1.1,1.5c-0.3,0-0.5,0.2-0.7,0.4c-0.5,0.6-0.8,1.2-0.9,2
	c-0.1,1.5,2.2,1.8,2.6,0.4c0-0.2,0.1-0.3,0.2-0.5c0.3-0.3,0.4-0.6,0.4-0.9C304.5,496.3,305,495.5,305.3,494.7z"/>
<path class="st4" d="M312.5,428c-1-1-2.5-0.2-3.7,0.1c-1.7,0.4-3.3,0.6-4.9,1.6c-1.5,0.9-0.5,3.6,1.3,3c0.7-0.2,1.2-0.7,1.8-1
	c0.7-0.4,1.5-0.6,2.3-1c1.2-0.5,2.2-1,3.2-1.9C312.7,428.6,312.7,428.2,312.5,428z"/>
<path class="st4" d="M291.5,433.4c-1.5-0.7-3.2,0.1-4.7,0.1c-1.7,0-2.1,2.6-0.4,3c1,0.2,2-0.2,2.8-0.7c0.8-0.4,1.6-0.7,2.3-1.1
	C292,434.4,292,433.7,291.5,433.4z"/>
<path class="st4" d="M279.4,436.3c-1,0.3-2.1,0.3-3.1,0.5c-1.4,0.2-2.7,0.6-4.1,0.6c-2.5,0.1-1.7,4,0.4,3.2c1.6-0.6,3.2-1.1,4.7-1.8
	c0.9-0.4,2.1-1,2.5-1.9C280,436.6,279.7,436.2,279.4,436.3z"/>
<path class="st4" d="M260.3,441.5c-3.8,0.9-7.4,2.5-11.2,3.1c-1.9,0.3-1.1,3.3,0.8,2.9c3.7-0.7,8.1-2.6,11-5
	C261.4,442.1,260.9,441.3,260.3,441.5z"/>
<path class="st4" d="M252.5,360.7c-1.1,0-1.9,0.6-2.9,1.1c-1.1,0.5-2.5,0.7-3.5,1.5c-0.4,0.4-0.1,0.9,0.3,1.1c0,0,0,0,0,0
	c0.1,0,0.1,0,0.2,0c0,0,0.1,0,0.1,0c0.9,0.1,1.9-0.1,2.8-0.3c0.5-0.1,1-0.2,1.5-0.4c0.3-0.1,0.8-0.4,1.2-0.4
	C254.1,363.6,254.4,360.7,252.5,360.7z"/>
<path class="st4" d="M267.8,357.1c-1.1,0-1.9,0.6-2.9,0.9c-0.5,0.2-1.1,0.3-1.6,0.5c-0.5,0.2-1.3,0.8-1.8,0.8c-0.8,0-1,1.3-0.2,1.4
	c1,0.2,2.1-0.4,3.1-0.6c0.9-0.2,2.2-0.7,3.1-0.6C269.3,359.9,269.6,357.1,267.8,357.1z"/>
<path class="st4" d="M281,354.5c-0.5,0.2-1.2,0.3-1.7,0.5c-0.5,0.2-1.1,0.5-1.5,1c-0.5,0.6,0.3,1.4,0.8,0.8c0.6-0.7,2.1-0.5,2.9-0.4
	C283,356.6,282.7,353.6,281,354.5z"/>
<path class="st4" d="M192.2,254.6c-2,0.4-3.7,0.3-5.7,0.1c-0.5-0.1-0.5,0.8,0,0.8c2,0.2,3.8,0.9,5.7,1.4
	C194,257.3,194.2,254.2,192.2,254.6z"/>
<path class="st4" d="M212.8,256.1c-3,0-6-0.5-9-0.3c-0.8,0-0.8,1.2,0,1.2c1.6-0.1,3.2,0.8,4.6,1.3c1.4,0.4,2.9,1,4.4,1
	C214.9,259.4,214.9,256.1,212.8,256.1z"/>
<path class="st4" d="M230.2,257c-1.5-0.2-3-0.2-4.5-0.2c-1.2-0.1-2.4-0.1-3.1,0.9c-0.1,0.2-0.1,0.5,0,0.7c0.7,1.1,2.1,1.1,3.2,1.4
	c1.4,0.3,2.9,0.8,4.4,0.6C232.4,260.2,232.3,257.3,230.2,257z"/>
<path class="st4" d="M249.4,258.8c-0.3,0.1-1-0.2-1.4-0.2c-0.5-0.1-1.1-0.1-1.6-0.1c-1.2-0.1-2.5-0.1-3.7,0.2c-1.1,0.3-1,1.7,0,2.1
	c1.5,0.5,3.1,0.6,4.6,1c1.4,0.3,2.4,1,3.6-0.2C252.2,260.4,250.9,258.4,249.4,258.8z"/>
<path class="st4" d="M234.9,162.6c-1.1-1-2.3-1.9-3.3-3c-0.7-0.8-1.2-1.6-1.9-2.4c0,0,0,0,0,0c-0.3-0.3-0.9-0.4-1.2,0.1
	c-0.5,1.1,0.3,2.5,0.9,3.4c1,1.4,2.1,2.7,3.3,3.9C234.1,166.3,236.4,163.9,234.9,162.6z"/>
<path class="st4" d="M246.6,175.3c-0.2,0-0.8-0.9-1-1.1c-0.5-0.5-1.1-1-1.7-1.5c-0.6-0.5-1.9-1.1-2.1-2c-0.3-1-1.7-0.7-1.8,0.2
	c-0.2,1.5,1.3,2.6,2.2,3.5c0.7,0.7,1.3,1.4,1.8,2.2c0.6,0.9,1.1,1.5,2.2,1.6C247.8,178.4,248.2,175.6,246.6,175.3z"/>
<path class="st4" d="M255.8,186.3c0.4-0.1,0.1-0.1,0-0.2c-0.1-0.2-0.3-0.3-0.5-0.4c-0.3-0.3-0.6-0.6-1-1c-0.8-0.7-1.6-1.4-2.3-2.3
	c-0.3-0.4-0.9-0.4-1.1,0.1c-0.5,1.4,1,2.7,1.8,3.8c0.9,1.3,1.8,2.8,3.5,2.8C258.2,189.3,258,186,255.8,186.3z"/>
<path class="st4" d="M376.5,133.9c0.1-1.1-1.9-1.7-2.1-0.1c-0.3,2.6-0.2,5.3-0.1,7.9c0.1,1.9,2.9,1.9,2.9,0
	C377.4,139.1,376.8,136.5,376.5,133.9z"/>
<path class="st4" d="M377.9,166.3c-0.4-2.3-0.7-4.9-0.7-7.3c0-0.9-1.4-0.9-1.4,0c0,2.3-0.3,5-0.7,7.3
	C374.6,168.7,378.4,168.7,377.9,166.3z"/>
<path class="st4" d="M379.3,188.1c-0.3-2.2-0.9-4.4-0.9-6.7c0-0.7-1.2-0.7-1.2,0c0,2.2-0.6,4.5-0.9,6.7
	C376.1,189.9,379.5,189.9,379.3,188.1z"/>
<path class="st4" d="M379.2,209.7c-0.4-2.5-0.2-5.3-1.1-7.7c-0.1-0.2-0.3-0.2-0.4,0c-0.9,2.4-0.7,5.2-1.1,7.7
	C376.1,211.9,379.6,212,379.2,209.7z"/>
<path class="st4" d="M516,148.5c-0.3,0.6-0.6,1.2-0.9,1.8c-0.4,0.9-0.6,1.8-1.3,2.4c-1.4,1.2,0.7,3.3,2,2c0.9-0.9,1.2-2.1,1.6-3.3
	c0.3-0.9,0.8-1.7,0.8-2.6C518.2,147.6,516.3,147.2,516,148.5z"/>
<path class="st4" d="M508.1,166.5c-0.4,1-0.8,2.1-1.3,3c-0.5,0.8-0.9,1.6-1,2.6c-0.1,1.6,2.3,1.9,2.7,0.4c0.2-0.8,0.6-1.5,0.9-2.3
	c0.4-1,0.7-2,0.8-3C510.4,165.7,508.4,165.1,508.1,166.5z"/>
<path class="st4" d="M501.8,186c-0.5,0.2-0.7,0.4-1,0.7c-0.1,0.1-0.2,0.1-0.2,0.2c0,0-0.1,0.1-0.1,0.1c-0.2,0.3-0.1,0.6,0,0.9
	c-0.3,0.7-0.7,1.3-1.1,2c-0.6,1-1.2,1.8-1.3,3c-0.2,1.7,2.5,2,2.9,0.4c0.5-2.1,1.9-3.9,2.2-6.1C503.2,186.7,502.7,185.7,501.8,186z"
	/>
<path class="st4" d="M494,209.8c-0.2-0.4-0.7-0.4-0.9-0.1c0,0,0,0,0,0c-1,1.4-1.8,3-2.7,4.4c-0.8,1.3,1,2.5,2,1.5c0.9-0.8,0.6-2,1-3
	C493.7,211.7,494.3,210.7,494,209.8z"/>
<path class="st4" d="M228.8,455.3c-1.1-7.1-3.7-16.8-12.3-17.6c-7.2-0.7-12,5.9-14.4,12.1c-3.2-4.5-8.9-9.7-13.7-9.6
	c-6.8,0.2-10.6,9-11.4,14.6c-2.9,19.1,12,33,25.9,43.5c0.2,0.1,0.4,0.2,0.6,0.1c0.3,0.5,0.8,0.8,1.6,0.6c3.7-1.3,5.7-4,8.1-7
	c2.6-3.4,5.2-6.5,7.5-10.2c2.6-4.3,6-8.3,7.3-13.2C229,464.1,229.5,459.9,228.8,455.3z M202,478.5c-1.3,0.7-2.8,0.6-4.2,0.7
	c-1.4,0.1-2.7,0-4.1-0.3c-1.3-0.3-0.8-2.3,0.3-2.2c0.9-0.3,1.8-0.5,2.8-0.6c-0.1-2.8-0.5-5.6-0.6-8.4c-0.1-2.1,0-4.5-0.3-6.7
	c-0.4,0.6-0.7,1.1-1,1.5c-0.4,0.8-1.7,0.2-1.4-0.6c0.5-1.5,1.2-3.4,2.5-4.3c0.5-0.3,1.3-0.1,1.6,0.4c1.1,2.3,0.9,5.2,1.1,7.7
	c0.3,3.3,0.8,6.7,0.9,10c0.4-0.1,0.8-0.1,1.2-0.2C202.4,475.1,203.8,477.5,202,478.5z M214.3,474.9c-1.2-1.1-2.8-2.3-4.1-3.5
	c0,0.7,0,1.4,0,2.1c0,0.7-0.4,2.4-0.2,3.1c0.5,1.5-1.9,2.5-2.5,1.1c-1-2.2-0.3-5.4-0.3-7.8c0-3.8-0.5-7.6-0.1-11.4
	c-0.1-1.2,2.1-1.7,2.2,0c0.2,2.1,0.4,4.1,0.6,6.2c1.5-1.9,3.3-3.8,4.9-5.4c1-1,2.3,0.4,1.8,1.4c0,0,0,0,0,0
	c-1.2,2.7-3.2,4.9-4.9,7.3c0.6,0.6,1.5,1.1,2.1,1.6c1.1,0.9,2,1.9,3,2.9C218.2,474.1,215.9,476.4,214.3,474.9z"/>
</svg>
